Kolar Latin-Light.ufo
<glyph name="exclam" format="1">
  <advance width="314"/>
  <unicode hex="0021"/>
  <outline>
    <contour>
      <point x="182" y="209" type="line"/>
      <point x="182" y="420"/>
      <point x="236" y="534"/>
      <point x="236" y="638" type="curve" smooth="yes"/>
      <point x="236" y="694"/>
      <point x="199" y="724"/>
      <point x="157" y="724" type="curve" smooth="yes"/>
      <point x="114" y="724"/>
      <point x="77" y="694"/>
      <point x="77" y="638" type="curve" smooth="yes"/>
      <point x="77" y="529"/>
      <point x="132" y="411"/>
      <point x="132" y="209" type="curve"/>
    </contour>
    <contour>
      <point x="87" y="59" type="curve" smooth="yes"/>
      <point x="87" y="21"/>
      <point x="118" y="-9"/>
      <point x="156" y="-9" type="curve" smooth="yes"/>
      <point x="197" y="-9"/>
      <point x="227" y="21"/>
      <point x="227" y="59" type="curve" smooth="yes"/>
      <point x="227" y="99"/>
      <point x="197" y="131"/>
      <point x="156" y="131" type="curve" smooth="yes"/>
      <point x="118" y="131"/>
      <point x="87" y="99"/>
    </contour>
  </outline>
</glyph>
<glyph name="quotedbl" format="1">
  <advance width="351"/>
  <unicode hex="0022"/>
  <outline>
    <contour>
      <point x="116" y="519" type="line"/>
      <point x="126" y="588"/>
      <point x="148" y="690"/>
      <point x="148" y="719" type="curve" smooth="yes"/>
      <point x="148" y="749"/>
      <point x="127" y="770"/>
      <point x="99" y="770" type="curve" smooth="yes"/>
      <point x="71" y="770"/>
      <point x="51" y="749"/>
      <point x="51" y="720" type="curve" smooth="yes"/>
      <point x="51" y="691"/>
      <point x="73" y="588"/>
      <point x="83" y="519" type="curve"/>
    </contour>
    <contour>
      <point x="269" y="519" type="line"/>
      <point x="278" y="588"/>
      <point x="300" y="690"/>
      <point x="300" y="719" type="curve" smooth="yes"/>
      <point x="300" y="749"/>
      <point x="280" y="770"/>
      <point x="252" y="770" type="curve" smooth="yes"/>
      <point x="224" y="770"/>
      <point x="203" y="749"/>
      <point x="203" y="720" type="curve" smooth="yes"/>
      <point x="203" y="691"/>
      <point x="226" y="588"/>
      <point x="236" y="519" type="curve"/>
    </contour>
  </outline>
</glyph>
<glyph name="percent" format="1">
  <advance width="640"/>
  <unicode hex="0025"/>
  <outline>
    <contour>
      <point x="609" y="714" type="line"/>
      <point x="555" y="714" type="line"/>
      <point x="31" y="0" type="line"/>
      <point x="93" y="0" type="line"/>
    </contour>
    <contour>
      <point x="192" y="724" type="curve" smooth="yes"/>
      <point x="124" y="724"/>
      <point x="69" y="659"/>
      <point x="69" y="575" type="curve" smooth="yes"/>
      <point x="69" y="495"/>
      <point x="124" y="431"/>
      <point x="192" y="431" type="curve" smooth="yes"/>
      <point x="261" y="431"/>
      <point x="314" y="495"/>
      <point x="314" y="575" type="curve" smooth="yes"/>
      <point x="314" y="659"/>
      <point x="261" y="724"/>
    </contour>
    <contour>
      <point x="192" y="458" type="curve" smooth="yes"/>
      <point x="157" y="458"/>
      <point x="138" y="484"/>
      <point x="138" y="573" type="curve" smooth="yes"/>
      <point x="138" y="667"/>
      <point x="157" y="696"/>
      <point x="192" y="696" type="curve" smooth="yes"/>
      <point x="227" y="696"/>
      <point x="246" y="667"/>
      <point x="246" y="573" type="curve" smooth="yes"/>
      <point x="246" y="484"/>
      <point x="226" y="458"/>
    </contour>
    <contour>
      <point x="449" y="284" type="curve" smooth="yes"/>
      <point x="380" y="284"/>
      <point x="326" y="219"/>
      <point x="326" y="136" type="curve" smooth="yes"/>
      <point x="326" y="55"/>
      <point x="380" y="-9"/>
      <point x="449" y="-9" type="curve" smooth="yes"/>
      <point x="518" y="-9"/>
      <point x="571" y="55"/>
      <point x="571" y="136" type="curve" smooth="yes"/>
      <point x="571" y="219"/>
      <point x="518" y="284"/>
    </contour>
    <contour>
      <point x="449" y="19" type="curve" smooth="yes"/>
      <point x="414" y="19"/>
      <point x="395" y="44"/>
      <point x="395" y="134" type="curve" smooth="yes"/>
      <point x="395" y="228"/>
      <point x="414" y="257"/>
      <point x="449" y="257" type="curve" smooth="yes"/>
      <point x="484" y="257"/>
      <point x="502" y="228"/>
      <point x="502" y="134" type="curve" smooth="yes"/>
      <point x="502" y="44"/>
      <point x="483" y="19"/>
    </contour>
  </outline>
</glyph>
<glyph name="ampersand" format="1">
  <advance width="824"/>
  <unicode hex="0026"/>
  <outline>
    <contour>
      <point x="361" y="389" type="line"/>
      <point x="474" y="448"/>
      <point x="514" y="506"/>
      <point x="514" y="576" type="curve" smooth="yes"/>
      <point x="514" y="661"/>
      <point x="447" y="724"/>
      <point x="352" y="724" type="curve"/>
      <point x="238" y="724"/>
      <point x="160" y="651"/>
      <point x="160" y="559" type="curve"/>
      <point x="160" y="498"/>
      <point x="184" y="440"/>
      <point x="226" y="380" type="curve"/>
      <point x="78" y="315"/>
      <point x="27" y="244"/>
      <point x="27" y="158" type="curve"/>
      <point x="27" y="56"/>
      <point x="102" y="-9"/>
      <point x="221" y="-9" type="curve"/>
      <point x="312" y="-9"/>
      <point x="392" y="29"/>
      <point x="458" y="85" type="curve"/>
      <point x="519" y="15"/>
      <point x="571" y="-9"/>
      <point x="643" y="-9" type="curve"/>
      <point x="718" y="-9"/>
      <point x="778" y="36"/>
      <point x="796" y="105" type="curve"/>
      <point x="772" y="111" type="line"/>
      <point x="752" y="73"/>
      <point x="729" y="63"/>
      <point x="696" y="63" type="curve"/>
      <point x="646" y="63"/>
      <point x="596" y="93"/>
      <point x="539" y="162" type="curve"/>
      <point x="668" y="348" type="line"/>
      <point x="695" y="387"/>
      <point x="717" y="400"/>
      <point x="772" y="400" type="curve"/>
      <point x="772" y="435" type="line"/>
      <point x="553" y="435" type="line"/>
      <point x="553" y="400" type="line"/>
      <point x="594" y="400"/>
      <point x="611" y="392"/>
      <point x="611" y="373" type="curve" smooth="yes"/>
      <point x="611" y="343"/>
      <point x="572" y="277"/>
      <point x="509" y="202" type="curve"/>
    </contour>
    <contour>
      <point x="329" y="431" type="curve"/>
      <point x="295" y="478"/>
      <point x="276" y="528"/>
      <point x="276" y="577" type="curve" smooth="yes"/>
      <point x="276" y="635"/>
      <point x="305" y="666"/>
      <point x="349" y="666" type="curve"/>
      <point x="393" y="666"/>
      <point x="416" y="631"/>
      <point x="416" y="580" type="curve" smooth="yes"/>
      <point x="416" y="528"/>
      <point x="388" y="478"/>
    </contour>
    <contour>
      <point x="430" y="120" type="line"/>
      <point x="382" y="81"/>
      <point x="322" y="60"/>
      <point x="272" y="60" type="curve"/>
      <point x="207" y="60"/>
      <point x="157" y="106"/>
      <point x="157" y="180" type="curve"/>
      <point x="157" y="244"/>
      <point x="198" y="292"/>
      <point x="263" y="332" type="curve"/>
    </contour>
  </outline>
</glyph>
<glyph name="quotesingle" format="1">
  <advance width="199"/>
  <unicode hex="0027"/>
  <outline>
    <contour>
      <point x="116" y="519" type="line"/>
      <point x="126" y="588"/>
      <point x="148" y="690"/>
      <point x="148" y="719" type="curve" smooth="yes"/>
      <point x="148" y="749"/>
      <point x="127" y="770"/>
      <point x="99" y="770" type="curve" smooth="yes"/>
      <point x="71" y="770"/>
      <point x="51" y="749"/>
      <point x="51" y="720" type="curve" smooth="yes"/>
      <point x="51" y="691"/>
      <point x="73" y="588"/>
      <point x="83" y="519" type="curve"/>
    </contour>
  </outline>
</glyph>
<glyph name="parenright" format="1">
  <advance width="326"/>
  <unicode hex="0029"/>
  <outline>
    <contour>
      <point x="18" y="745" type="line"/>
      <point x="139" y="582"/>
      <point x="171" y="466"/>
      <point x="171" y="316" type="curve" smooth="yes"/>
      <point x="171" y="132"/>
      <point x="127" y="-25"/>
      <point x="11" y="-152" type="curve"/>
      <point x="40" y="-180" type="line"/>
      <point x="202" y="-37"/>
      <point x="287" y="128"/>
      <point x="287" y="300" type="curve" smooth="yes"/>
      <point x="287" y="466"/>
      <point x="206" y="628"/>
      <point x="48" y="771" type="curve"/>
    </contour>
  </outline>
</glyph>
<glyph name="plus" format="1">
  <advance width="514"/>
  <unicode hex="002B"/>
  <outline>
    <contour>
      <point x="284" y="89" type="line"/>
      <point x="284" y="288" type="line"/>
      <point x="480" y="288" type="line"/>
      <point x="480" y="339" type="line"/>
      <point x="284" y="339" type="line"/>
      <point x="284" y="538" type="line"/>
      <point x="230" y="538" type="line"/>
      <point x="230" y="339" type="line"/>
      <point x="35" y="339" type="line"/>
      <point x="35" y="288" type="line"/>
      <point x="230" y="288" type="line"/>
      <point x="230" y="89" type="line"/>
    </contour>
  </outline>
</glyph>
<glyph name="comma" format="1">
  <advance width="255"/>
  <unicode hex="002C"/>
  <outline>
    <contour>
      <point x="62" y="-154" type="line"/>
      <point x="158" y="-96"/>
      <point x="197" y="-38"/>
      <point x="197" y="32" type="curve" smooth="yes"/>
      <point x="197" y="89"/>
      <point x="172" y="128"/>
      <point x="123" y="128" type="curve" smooth="yes"/>
      <point x="77" y="128"/>
      <point x="48" y="98"/>
      <point x="48" y="60" type="curve" smooth="yes"/>
      <point x="48" y="22"/>
      <point x="72" y="-2"/>
      <point x="104" y="-2" type="curve" smooth="yes"/>
      <point x="117" y="-2"/>
      <point x="127" y="1"/>
      <point x="134" y="5" type="curve"/>
      <point x="134" y="-36"/>
      <point x="113" y="-73"/>
      <point x="37" y="-120" type="curve"/>
    </contour>
  </outline>
</glyph>
<glyph name="slash" format="1">
  <advance width="434"/>
  <unicode hex="002F"/>
  <outline>
    <contour>
      <point x="410" y="714" type="line"/>
      <point x="360" y="714" type="line"/>
      <point x="25" y="0" type="line"/>
      <point x="84" y="0" type="line"/>
    </contour>
  </outline>
</glyph>
<glyph name="zero" format="1">
  <advance width="692"/>
  <unicode hex="0030"/>
  <outline>
    <contour>
      <point x="346" y="724" type="curve" smooth="yes"/>
      <point x="188" y="724"/>
      <point x="51" y="562"/>
      <point x="51" y="352" type="curve" smooth="yes"/>
      <point x="51" y="150"/>
      <point x="188" y="-9"/>
      <point x="346" y="-9" type="curve" smooth="yes"/>
      <point x="506" y="-9"/>
      <point x="641" y="150"/>
      <point x="641" y="352" type="curve" smooth="yes"/>
      <point x="641" y="562"/>
      <point x="506" y="724"/>
    </contour>
    <contour>
      <point x="346" y="40" type="curve"/>
      <point x="248" y="40"/>
      <point x="184" y="111"/>
      <point x="184" y="349" type="curve" smooth="yes"/>
      <point x="184" y="597"/>
      <point x="248" y="675"/>
      <point x="346" y="675" type="curve"/>
      <point x="444" y="675"/>
      <point x="507" y="597"/>
      <point x="507" y="349" type="curve" smooth="yes"/>
      <point x="507" y="111"/>
      <point x="444" y="40"/>
    </contour>
  </outline>
</glyph>
<glyph name="one" format="1">
  <advance width="418"/>
  <unicode hex="0031"/>
  <outline>
    <contour>
      <point x="275" y="724" type="line"/>
      <point x="212" y="702"/>
      <point x="110" y="687"/>
      <point x="47" y="684" type="curve"/>
      <point x="47" y="648" type="line"/>
      <point x="113" y="648"/>
      <point x="144" y="646"/>
      <point x="151" y="619" type="curve" smooth="yes"/>
      <point x="155" y="604"/>
      <point x="155" y="555"/>
      <point x="155" y="483" type="curve" smooth="yes"/>
      <point x="155" y="145" type="line"/>
      <point x="155" y="57"/>
      <point x="140" y="39"/>
      <point x="52" y="36" type="curve"/>
      <point x="52" y="0" type="line"/>
      <point x="374" y="0" type="line"/>
      <point x="374" y="36" type="line"/>
      <point x="289" y="39"/>
      <point x="275" y="56"/>
      <point x="275" y="151" type="curve" smooth="yes"/>
    </contour>
  </outline>
</glyph>
<glyph name="two" format="1">
  <advance width="591"/>
  <unicode hex="0032"/>
  <outline>
    <contour>
      <point x="184" y="104" type="line"/>
      <point x="371" y="236"/>
      <point x="531" y="372"/>
      <point x="531" y="523" type="curve" smooth="yes"/>
      <point x="531" y="641"/>
      <point x="436" y="724"/>
      <point x="292" y="724" type="curve" smooth="yes"/>
      <point x="154" y="724"/>
      <point x="50" y="642"/>
      <point x="50" y="531" type="curve" smooth="yes"/>
      <point x="50" y="451"/>
      <point x="102" y="392"/>
      <point x="170" y="392" type="curve" smooth="yes"/>
      <point x="213" y="392"/>
      <point x="246" y="413"/>
      <point x="251" y="446" type="curve"/>
      <point x="188" y="446"/>
      <point x="157" y="487"/>
      <point x="157" y="551" type="curve" smooth="yes"/>
      <point x="157" y="625"/>
      <point x="201" y="677"/>
      <point x="282" y="677" type="curve"/>
      <point x="359" y="677"/>
      <point x="401" y="618"/>
      <point x="401" y="525" type="curve" smooth="yes"/>
      <point x="401" y="395"/>
      <point x="330" y="288"/>
      <point x="42" y="36" type="curve"/>
      <point x="42" y="0" type="line"/>
      <point x="502" y="0" type="line"/>
      <point x="538" y="200" type="line"/>
      <point x="501" y="200" type="line"/>
      <point x="476" y="120"/>
      <point x="449" y="99"/>
      <point x="388" y="99" type="curve" smooth="yes"/>
      <point x="185" y="99" type="line"/>
    </contour>
  </outline>
</glyph>
<glyph name="four" format="1">
  <advance width="590"/>
  <unicode hex="0034"/>
  <outline>
    <contour>
      <point x="12" y="229" type="line"/>
      <point x="349" y="724" type="line"/>
      <point x="415" y="724" type="line"/>
      <point x="415" y="230" type="line"/>
      <point x="498" y="232"/>
      <point x="512" y="244"/>
      <point x="512" y="316" type="curve"/>
      <point x="545" y="316" type="line"/>
      <point x="545" y="101" type="line"/>
      <point x="512" y="101" type="line"/>
      <point x="512" y="168"/>
      <point x="498" y="180"/>
      <point x="415" y="182" type="curve"/>
      <point x="415" y="158" type="line"/>
      <point x="415" y="67"/>
      <point x="428" y="38"/>
      <point x="494" y="36" type="curve"/>
      <point x="494" y="0" type="line"/>
      <point x="197" y="0" type="line"/>
      <point x="197" y="36" type="line"/>
      <point x="281" y="38"/>
      <point x="300" y="69"/>
      <point x="300" y="152" type="curve" smooth="yes"/>
      <point x="300" y="178" type="line"/>
      <point x="12" y="178" type="line"/>
    </contour>
    <contour>
      <point x="300" y="554" type="line"/>
      <point x="295" y="554" type="line"/>
      <point x="74" y="231" type="line"/>
      <point x="300" y="231" type="line"/>
    </contour>
  </outline>
</glyph>
<glyph name="six" format="1">
  <advance width="625"/>
  <unicode hex="0036"/>
  <outline>
    <contour>
      <point x="578" y="240" type="curve" smooth="yes"/>
      <point x="578" y="373"/>
      <point x="487" y="474"/>
      <point x="352" y="474" type="curve" smooth="yes"/>
      <point x="292" y="474"/>
      <point x="227" y="450"/>
      <point x="187" y="398" type="curve"/>
      <point x="185" y="400" type="line"/>
      <point x="185" y="558"/>
      <point x="248" y="678"/>
      <point x="341" y="678" type="curve" smooth="yes"/>
      <point x="438" y="678"/>
      <point x="407" y="572"/>
      <point x="482" y="572" type="curve" smooth="yes"/>
      <point x="515" y="572"/>
      <point x="536" y="592"/>
      <point x="536" y="625" type="curve" smooth="yes"/>
      <point x="536" y="680"/>
      <point x="462" y="724"/>
      <point x="373" y="724" type="curve"/>
      <point x="180" y="724"/>
      <point x="51" y="542"/>
      <point x="51" y="313" type="curve" smooth="yes"/>
      <point x="51" y="123"/>
      <point x="155" y="-9"/>
      <point x="314" y="-9" type="curve" smooth="yes"/>
      <point x="469" y="-9"/>
      <point x="578" y="99"/>
    </contour>
    <contour>
      <point x="183" y="319" type="line"/>
      <point x="217" y="390"/>
      <point x="268" y="424"/>
      <point x="328" y="424" type="curve" smooth="yes"/>
      <point x="402" y="424"/>
      <point x="449" y="359"/>
      <point x="449" y="236" type="curve" smooth="yes"/>
      <point x="449" y="101"/>
      <point x="400" y="37"/>
      <point x="318" y="37" type="curve" smooth="yes"/>
      <point x="236" y="37"/>
      <point x="183" y="114"/>
      <point x="183" y="263" type="curve" smooth="yes"/>
    </contour>
  </outline>
</glyph>
<glyph name="eight" format="1">
  <advance width="589"/>
  <unicode hex="0038"/>
  <outline>
    <contour>
      <point x="449" y="160" type="curve" smooth="yes"/>
      <point x="449" y="87"/>
      <point x="388" y="38"/>
      <point x="300" y="38" type="curve" smooth="yes"/>
      <point x="208" y="38"/>
      <point x="151" y="92"/>
      <point x="151" y="169" type="curve" smooth="yes"/>
      <point x="151" y="240"/>
      <point x="197" y="296"/>
      <point x="273" y="347" type="curve"/>
      <point x="220" y="364" type="line"/>
      <point x="102" y="309"/>
      <point x="51" y="248"/>
      <point x="51" y="171" type="curve" smooth="yes"/>
      <point x="51" y="66"/>
      <point x="154" y="-9"/>
      <point x="290" y="-9" type="curve" smooth="yes"/>
      <point x="433" y="-9"/>
      <point x="540" y="77"/>
      <point x="540" y="193" type="curve"/>
      <point x="540" y="281"/>
      <point x="502" y="346"/>
      <point x="373" y="406" type="curve" smooth="yes"/>
      <point x="284" y="447" type="line"/>
      <point x="204" y="484"/>
      <point x="161" y="523"/>
      <point x="161" y="579" type="curve" smooth="yes"/>
      <point x="161" y="637"/>
      <point x="215" y="678"/>
      <point x="290" y="678" type="curve"/>
      <point x="374" y="678"/>
      <point x="421" y="627"/>
      <point x="421" y="556" type="curve"/>
      <point x="421" y="501"/>
      <point x="389" y="454"/>
      <point x="322" y="404" type="curve"/>
      <point x="375" y="388" type="line"/>
      <point x="475" y="432"/>
      <point x="514" y="488"/>
      <point x="514" y="555" type="curve" smooth="yes"/>
      <point x="514" y="651"/>
      <point x="418" y="724"/>
      <point x="299" y="724" type="curve"/>
      <point x="168" y="724"/>
      <point x="75" y="641"/>
      <point x="75" y="537" type="curve" smooth="yes"/>
      <point x="75" y="455"/>
      <point x="119" y="394"/>
      <point x="223" y="346" type="curve" smooth="yes"/>
      <point x="317" y="303" type="line"/>
      <point x="403" y="263"/>
      <point x="449" y="217"/>
    </contour>
  </outline>
</glyph>
<glyph name="nine" format="1">
  <advance width="625"/>
  <unicode hex="0039"/>
  <outline>
    <contour>
      <point x="48" y="474" type="curve" smooth="yes"/>
      <point x="48" y="341"/>
      <point x="138" y="241"/>
      <point x="273" y="241" type="curve" smooth="yes"/>
      <point x="334" y="241"/>
      <point x="399" y="264"/>
      <point x="439" y="316" type="curve"/>
      <point x="442" y="314" type="line"/>
      <point x="442" y="156"/>
      <point x="378" y="37"/>
      <point x="285" y="37" type="curve" smooth="yes"/>
      <point x="189" y="37"/>
      <point x="219" y="142"/>
      <point x="144" y="142" type="curve" smooth="yes"/>
      <point x="111" y="142"/>
      <point x="89" y="122"/>
      <point x="89" y="89" type="curve" smooth="yes"/>
      <point x="89" y="34"/>
      <point x="164" y="-9"/>
      <point x="252" y="-9" type="curve"/>
      <point x="446" y="-9"/>
      <point x="575" y="172"/>
      <point x="575" y="401" type="curve" smooth="yes"/>
      <point x="575" y="591"/>
      <point x="471" y="724"/>
      <point x="312" y="724" type="curve" smooth="yes"/>
      <point x="157" y="724"/>
      <point x="48" y="615"/>
    </contour>
    <contour>
      <point x="443" y="396" type="line"/>
      <point x="408" y="325"/>
      <point x="358" y="291"/>
      <point x="298" y="291" type="curve" smooth="yes"/>
      <point x="224" y="291"/>
      <point x="177" y="356"/>
      <point x="177" y="478" type="curve" smooth="yes"/>
      <point x="177" y="613"/>
      <point x="226" y="678"/>
      <point x="308" y="678" type="curve" smooth="yes"/>
      <point x="389" y="678"/>
      <point x="443" y="601"/>
      <point x="443" y="452" type="curve" smooth="yes"/>
    </contour>
  </outline>
</glyph>
<glyph name="colon" format="1">
  <advance width="267"/>
  <unicode hex="003A"/>
  <outline>
    <contour>
      <point x="63" y="351" type="curve" smooth="yes"/>
      <point x="63" y="313"/>
      <point x="94" y="282"/>
      <point x="133" y="282" type="curve" smooth="yes"/>
      <point x="173" y="282"/>
      <point x="204" y="313"/>
      <point x="204" y="351" type="curve" smooth="yes"/>
      <point x="204" y="391"/>
      <point x="173" y="422"/>
      <point x="133" y="422" type="curve" smooth="yes"/>
      <point x="94" y="422"/>
      <point x="63" y="391"/>
    </contour>
    <contour>
      <point x="63" y="59" type="curve" smooth="yes"/>
      <point x="63" y="21"/>
      <point x="94" y="-9"/>
      <point x="132" y="-9" type="curve" smooth="yes"/>
      <point x="172" y="-9"/>
      <point x="203" y="21"/>
      <point x="203" y="59" type="curve" smooth="yes"/>
      <point x="203" y="99"/>
      <point x="172" y="131"/>
      <point x="132" y="131" type="curve" smooth="yes"/>
      <point x="94" y="131"/>
      <point x="63" y="99"/>
    </contour>
  </outline>
</glyph>
<glyph name="semicolon" format="1">
  <advance width="288"/>
  <unicode hex="003B"/>
  <outline>
    <contour>
      <point x="69" y="351" type="curve" smooth="yes"/>
      <point x="69" y="313"/>
      <point x="100" y="282"/>
      <point x="139" y="282" type="curve" smooth="yes"/>
      <point x="179" y="282"/>
      <point x="210" y="313"/>
      <point x="210" y="351" type="curve" smooth="yes"/>
      <point x="210" y="391"/>
      <point x="179" y="422"/>
      <point x="139" y="422" type="curve" smooth="yes"/>
      <point x="100" y="422"/>
      <point x="69" y="391"/>
    </contour>
    <contour>
      <point x="81" y="-154" type="line"/>
      <point x="178" y="-96"/>
      <point x="217" y="-38"/>
      <point x="217" y="32" type="curve" smooth="yes"/>
      <point x="217" y="89"/>
      <point x="191" y="128"/>
      <point x="142" y="128" type="curve" smooth="yes"/>
      <point x="96" y="128"/>
      <point x="68" y="98"/>
      <point x="68" y="60" type="curve" smooth="yes"/>
      <point x="68" y="22"/>
      <point x="92" y="-2"/>
      <point x="123" y="-2" type="curve" smooth="yes"/>
      <point x="136" y="-2"/>
      <point x="146" y="1"/>
      <point x="153" y="5" type="curve"/>
      <point x="153" y="-36"/>
      <point x="132" y="-73"/>
      <point x="56" y="-120" type="curve"/>
    </contour>
  </outline>
</glyph>
<glyph name="less" format="1">
  <advance width="544"/>
  <unicode hex="003C"/>
  <outline>
    <contour>
      <point x="83" y="312" type="line"/>
      <point x="469" y="499" type="line"/>
      <point x="469" y="557" type="line"/>
      <point x="35" y="342" type="line"/>
      <point x="35" y="282" type="line"/>
      <point x="469" y="67" type="line"/>
      <point x="469" y="123" type="line"/>
    </contour>
  </outline>
</glyph>
<glyph name="equal" format="1">
  <advance width="574"/>
  <unicode hex="003D"/>
  <outline>
    <contour>
      <point x="502" y="442" type="line"/>
      <point x="72" y="442" type="line"/>
      <point x="72" y="391" type="line"/>
      <point x="502" y="391" type="line"/>
    </contour>
    <contour>
      <point x="502" y="280" type="line"/>
      <point x="72" y="280" type="line"/>
      <point x="72" y="230" type="line"/>
      <point x="502" y="230" type="line"/>
    </contour>
  </outline>
</glyph>
<glyph name="question" format="1">
  <advance width="388"/>
  <unicode hex="003F"/>
  <outline>
    <contour>
      <point x="178" y="221" type="line"/>
      <point x="178" y="332" type="line"/>
      <point x="275" y="328"/>
      <point x="339" y="384"/>
      <point x="339" y="487" type="curve" smooth="yes"/>
      <point x="339" y="618"/>
      <point x="238" y="724"/>
      <point x="130" y="724" type="curve" smooth="yes"/>
      <point x="87" y="724"/>
      <point x="58" y="705"/>
      <point x="58" y="667" type="curve" smooth="yes"/>
      <point x="58" y="635"/>
      <point x="85" y="615"/>
      <point x="117" y="615" type="curve" smooth="yes"/>
      <point x="143" y="615"/>
      <point x="169" y="625"/>
      <point x="192" y="625" type="curve" smooth="yes"/>
      <point x="238" y="625"/>
      <point x="282" y="581"/>
      <point x="282" y="524" type="curve" smooth="yes"/>
      <point x="282" y="462"/>
      <point x="233" y="430"/>
      <point x="151" y="430" type="curve" smooth="yes"/>
      <point x="122" y="430" type="line"/>
      <point x="122" y="221" type="line"/>
    </contour>
    <contour>
      <point x="78" y="59" type="curve" smooth="yes"/>
      <point x="78" y="21"/>
      <point x="109" y="-9"/>
      <point x="147" y="-9" type="curve" smooth="yes"/>
      <point x="188" y="-9"/>
      <point x="218" y="21"/>
      <point x="218" y="59" type="curve" smooth="yes"/>
      <point x="218" y="99"/>
      <point x="188" y="131"/>
      <point x="147" y="131" type="curve" smooth="yes"/>
      <point x="109" y="131"/>
      <point x="78" y="99"/>
    </contour>
  </outline>
</glyph>
<glyph name="at" format="1">
  <advance width="969"/>
  <unicode hex="0040"/>
  <outline>
    <contour>
      <point x="651" y="492" type="line"/>
      <point x="758" y="492" type="line"/>
      <point x="694" y="276" type="line"/>
      <point x="678" y="222"/>
      <point x="669" y="178"/>
      <point x="669" y="157" type="curve" smooth="yes"/>
      <point x="669" y="134"/>
      <point x="684" y="122"/>
      <point x="704" y="122" type="curve" smooth="yes"/>
      <point x="784" y="122"/>
      <point x="868" y="252"/>
      <point x="868" y="389" type="curve" smooth="yes"/>
      <point x="868" y="555"/>
      <point x="730" y="678"/>
      <point x="540" y="678" type="curve" smooth="yes"/>
      <point x="316" y="678"/>
      <point x="143" y="504"/>
      <point x="143" y="278" type="curve" smooth="yes"/>
      <point x="143" y="67"/>
      <point x="295" y="-76"/>
      <point x="520" y="-76" type="curve" smooth="yes"/>
      <point x="625" y="-76"/>
      <point x="723" y="-45"/>
      <point x="814" y="18" type="curve"/>
      <point x="838" y="-16" type="line"/>
      <point x="726" y="-91"/>
      <point x="626" y="-124"/>
      <point x="506" y="-124" type="curve" smooth="yes"/>
      <point x="235" y="-124"/>
      <point x="44" y="43"/>
      <point x="44" y="279" type="curve" smooth="yes"/>
      <point x="44" y="529"/>
      <point x="258" y="724"/>
      <point x="534" y="724" type="curve" smooth="yes"/>
      <point x="763" y="724"/>
      <point x="915" y="590"/>
      <point x="915" y="391" type="curve" smooth="yes"/>
      <point x="915" y="214"/>
      <point x="803" y="71"/>
      <point x="680" y="71" type="curve" smooth="yes"/>
      <point x="613" y="71"/>
      <point x="575" y="108"/>
      <point x="569" y="178" type="curve"/>
      <point x="566" y="178" type="line"/>
      <point x="527" y="113"/>
      <point x="471" y="71"/>
      <point x="408" y="71" type="curve" smooth="yes"/>
      <point x="317" y="71"/>
      <point x="261" y="140"/>
      <point x="261" y="236" type="curve" smooth="yes"/>
      <point x="261" y="375"/>
      <point x="390" y="501"/>
      <point x="518" y="501" type="curve" smooth="yes"/>
      <point x="577" y="501"/>
      <point x="613" y="470"/>
      <point x="627" y="410" type="curve"/>
      <point x="631" y="410" type="line"/>
    </contour>
    <contour>
      <point x="527" y="458" type="curve" smooth="yes"/>
      <point x="446" y="458"/>
      <point x="369" y="342"/>
      <point x="369" y="215" type="curve" smooth="yes"/>
      <point x="369" y="151"/>
      <point x="395" y="117"/>
      <point x="434" y="117" type="curve" smooth="yes"/>
      <point x="504" y="117"/>
      <point x="595" y="249"/>
      <point x="595" y="366" type="curve" smooth="yes"/>
      <point x="595" y="424"/>
      <point x="570" y="458"/>
    </contour>
  </outline>
</glyph>
<glyph name="A" format="1">
  <advance width="740"/>
  <unicode hex="0041"/>
  <outline>
    <contour>
      <point x="492" y="159" type="line"/>
      <point x="509" y="119"/>
      <point x="515" y="98"/>
      <point x="515" y="76" type="curve" smooth="yes"/>
      <point x="515" y="47"/>
      <point x="489" y="38"/>
      <point x="426" y="37" type="curve"/>
      <point x="426" y="0" type="line"/>
      <point x="759" y="0" type="line"/>
      <point x="759" y="37" type="line"/>
      <point x="686" y="41"/>
      <point x="670" y="55"/>
      <point x="615" y="187" type="curve" smooth="yes"/>
      <point x="390" y="721" type="line"/>
      <point x="337" y="721" type="line"/>
      <point x="95" y="111" type="line"/>
      <point x="74" y="58"/>
      <point x="49" y="42"/>
      <point x="-8" y="36" type="curve"/>
      <point x="-8" y="0" type="line"/>
      <point x="230" y="0" type="line"/>
      <point x="230" y="36" type="line"/>
      <point x="177" y="36"/>
      <point x="152" y="45"/>
      <point x="152" y="80" type="curve" smooth="yes"/>
      <point x="152" y="101"/>
      <point x="163" y="136"/>
      <point x="204" y="239" type="curve"/>
      <point x="461" y="239" type="line"/>
    </contour>
    <contour>
      <point x="332" y="559" type="line"/>
      <point x="441" y="290" type="line"/>
      <point x="225" y="290" type="line"/>
    </contour>
    <contour>
      <point x="362" y="770" type="move" name="topcap"/>
    </contour>
    <contour>
      <point x="604" y="0" type="move" name="bottom"/>
    </contour>
  </outline>
</glyph>
<glyph name="J" format="1">
  <advance width="375"/>
  <unicode hex="004A"/>
  <outline>
    <contour>
      <point x="129" y="572" type="line"/>
      <point x="129" y="659"/>
      <point x="116" y="675"/>
      <point x="37" y="678" type="curve"/>
      <point x="37" y="714" type="line"/>
      <point x="338" y="714" type="line"/>
      <point x="338" y="678" type="line"/>
      <point x="259" y="676"/>
      <point x="248" y="660"/>
      <point x="248" y="566" type="curve" smooth="yes"/>
      <point x="248" y="-2" type="line"/>
      <point x="248" y="-157"/>
      <point x="175" y="-241"/>
      <point x="30" y="-241" type="curve" smooth="yes"/>
      <point x="-66" y="-241"/>
      <point x="-127" y="-202"/>
      <point x="-127" y="-145" type="curve" smooth="yes"/>
      <point x="-127" y="-113"/>
      <point x="-105" y="-94"/>
      <point x="-74" y="-94" type="curve" smooth="yes"/>
      <point x="-49" y="-94"/>
      <point x="-37" y="-104"/>
      <point x="-16" y="-142" type="curve" smooth="yes"/>
      <point x="7" y="-182"/>
      <point x="21" y="-192"/>
      <point x="48" y="-192" type="curve" smooth="yes"/>
      <point x="99" y="-192"/>
      <point x="129" y="-143"/>
      <point x="129" y="-36" type="curve"/>
    </contour>
    <contour>
      <point x="186" y="770" type="move" name="topcap"/>
    </contour>
  </outline>
</glyph>
<glyph name="K" format="1">
  <advance width="736"/>
  <unicode hex="004B"/>
  <outline>
    <contour>
      <point x="257" y="268" type="line"/>
      <point x="257" y="148" type="line"/>
      <point x="257" y="54"/>
      <point x="271" y="38"/>
      <point x="352" y="36" type="curve"/>
      <point x="352" y="0" type="line"/>
      <point x="37" y="0" type="line"/>
      <point x="37" y="36" type="line"/>
      <point x="122" y="38"/>
      <point x="138" y="55"/>
      <point x="138" y="142" type="curve" smooth="yes"/>
      <point x="138" y="572" type="line"/>
      <point x="138" y="663"/>
      <point x="121" y="677"/>
      <point x="47" y="678" type="curve"/>
      <point x="47" y="714" type="line"/>
      <point x="351" y="714" type="line"/>
      <point x="351" y="678" type="line"/>
      <point x="273" y="677"/>
      <point x="257" y="662"/>
      <point x="257" y="566" type="curve" smooth="yes"/>
      <point x="257" y="347" type="line"/>
      <point x="502" y="617" type="line"/>
      <point x="516" y="631"/>
      <point x="522" y="644"/>
      <point x="522" y="653" type="curve" smooth="yes"/>
      <point x="522" y="669"/>
      <point x="506" y="678"/>
      <point x="464" y="678" type="curve"/>
      <point x="464" y="714" type="line"/>
      <point x="702" y="714" type="line"/>
      <point x="702" y="679" type="line"/>
      <point x="650" y="678"/>
      <point x="631" y="668"/>
      <point x="568" y="601" type="curve" smooth="yes"/>
    </contour>
    <contour>
      <point x="409" y="448" type="line"/>
      <point x="660" y="84" type="line"/>
      <point x="686" y="49"/>
      <point x="708" y="36"/>
      <point x="751" y="36" type="curve"/>
      <point x="751" y="0" type="line"/>
      <point x="444" y="0" type="line"/>
      <point x="444" y="36" type="line"/>
      <point x="487" y="36"/>
      <point x="506" y="45"/>
      <point x="506" y="66" type="curve"/>
      <point x="506" y="79"/>
      <point x="500" y="95"/>
      <point x="482" y="122" type="curve" smooth="yes"/>
      <point x="324" y="365" type="line"/>
    </contour>
    <contour>
      <point x="398" y="0" type="move" name="bottom"/>
    </contour>
  </outline>
</glyph>
<glyph name="L" format="1">
  <advance width="691"/>
  <unicode hex="004C"/>
  <outline>
    <contour>
      <point x="659" y="0" type="line"/>
      <point x="37" y="0" type="line"/>
      <point x="37" y="36" type="line"/>
      <point x="123" y="39"/>
      <point x="138" y="55"/>
      <point x="138" y="142" type="curve" smooth="yes"/>
      <point x="138" y="572" type="line"/>
      <point x="138" y="659"/>
      <point x="125" y="675"/>
      <point x="47" y="678" type="curve"/>
      <point x="47" y="714" type="line"/>
      <point x="351" y="714" type="line"/>
      <point x="351" y="678" type="line"/>
      <point x="270" y="676"/>
      <point x="257" y="660"/>
      <point x="257" y="566" type="curve" smooth="yes"/>
      <point x="257" y="171" type="line"/>
      <point x="257" y="67"/>
      <point x="295" y="46"/>
      <point x="424" y="46" type="curve" smooth="yes"/>
      <point x="566" y="46"/>
      <point x="611" y="74"/>
      <point x="638" y="195" type="curve"/>
      <point x="674" y="195" type="line"/>
    </contour>
    <contour>
      <point x="204" y="770" type="move" name="topcap"/>
    </contour>
    <contour>
      <point x="370" y="0" type="move" name="bottom"/>
    </contour>
  </outline>
</glyph>
<glyph name="P" format="1">
  <advance width="654"/>
  <unicode hex="0050"/>
  <outline>
    <contour>
      <point x="632" y="524" type="curve" smooth="yes"/>
      <point x="632" y="646"/>
      <point x="533" y="714"/>
      <point x="349" y="714" type="curve" smooth="yes"/>
      <point x="47" y="714" type="line"/>
      <point x="47" y="678" type="line"/>
      <point x="125" y="675"/>
      <point x="138" y="659"/>
      <point x="138" y="572" type="curve" smooth="yes"/>
      <point x="138" y="142" type="line"/>
      <point x="138" y="55"/>
      <point x="123" y="39"/>
      <point x="37" y="36" type="curve"/>
      <point x="37" y="0" type="line"/>
      <point x="388" y="0" type="line"/>
      <point x="388" y="36" type="line"/>
      <point x="275" y="36"/>
      <point x="257" y="53"/>
      <point x="257" y="147" type="curve" smooth="yes"/>
      <point x="257" y="314" type="line"/>
      <point x="331" y="314" type="line"/>
      <point x="540" y="314"/>
      <point x="632" y="399"/>
    </contour>
    <contour>
      <point x="257" y="651" type="line"/>
      <point x="257" y="660"/>
      <point x="263" y="667"/>
      <point x="273" y="667" type="curve" smooth="yes"/>
      <point x="344" y="667" type="line"/>
      <point x="449" y="667"/>
      <point x="500" y="619"/>
      <point x="500" y="517" type="curve" smooth="yes"/>
      <point x="500" y="414"/>
      <point x="437" y="365"/>
      <point x="317" y="365" type="curve" smooth="yes"/>
      <point x="257" y="365" type="line"/>
    </contour>
  </outline>
</glyph>
<glyph name="Q" format="1">
  <advance width="863"/>
  <unicode hex="0051"/>
  <outline>
    <contour>
      <point x="703" y="-246" type="curve"/>
      <point x="800" y="-246"/>
      <point x="851" y="-185"/>
      <point x="851" y="-106" type="curve" smooth="yes"/>
      <point x="851" y="-95"/>
      <point x="849" y="-80"/>
      <point x="847" y="-67" type="curve"/>
      <point x="819" y="-67" type="line"/>
      <point x="803" y="-127"/>
      <point x="773" y="-145"/>
      <point x="719" y="-145" type="curve" smooth="yes"/>
      <point x="616" y="-145"/>
      <point x="516" y="-80"/>
      <point x="406" y="-80" type="curve" smooth="yes"/>
      <point x="390" y="-80" type="line"/>
      <point x="453" y="-54" type="line" smooth="yes"/>
      <point x="637" y="22"/>
      <point x="806" y="130"/>
      <point x="806" y="346" type="curve"/>
      <point x="806" y="561"/>
      <point x="661" y="724"/>
      <point x="441" y="724" type="curve" smooth="yes"/>
      <point x="221" y="724"/>
      <point x="49" y="562"/>
      <point x="49" y="346" type="curve"/>
      <point x="49" y="144"/>
      <point x="190" y="-13"/>
      <point x="389" y="-28" type="curve"/>
      <point x="270" y="-93" type="line"/>
      <point x="215" y="-123"/>
      <point x="206" y="-134"/>
      <point x="206" y="-153" type="curve" smooth="yes"/>
      <point x="206" y="-168"/>
      <point x="217" y="-177"/>
      <point x="236" y="-177" type="curve" smooth="yes"/>
      <point x="280" y="-177"/>
      <point x="295" y="-123"/>
      <point x="360" y="-123" type="curve" smooth="yes"/>
      <point x="464" y="-123"/>
      <point x="547" y="-246"/>
    </contour>
    <contour>
      <point x="426" y="23" type="curve" smooth="yes"/>
      <point x="272" y="23"/>
      <point x="183" y="143"/>
      <point x="183" y="344" type="curve"/>
      <point x="183" y="546"/>
      <point x="286" y="668"/>
      <point x="441" y="668" type="curve" smooth="yes"/>
      <point x="596" y="668"/>
      <point x="672" y="545"/>
      <point x="672" y="344" type="curve"/>
      <point x="672" y="145"/>
      <point x="580" y="23"/>
    </contour>
  </outline>
</glyph>
<glyph name="R" format="1">
  <advance width="742"/>
  <unicode hex="0052"/>
  <outline>
    <contour>
      <point x="636" y="530" type="curve" smooth="yes"/>
      <point x="636" y="648"/>
      <point x="537" y="714"/>
      <point x="356" y="714" type="curve" smooth="yes"/>
      <point x="47" y="714" type="line"/>
      <point x="47" y="678" type="line"/>
      <point x="125" y="675"/>
      <point x="138" y="659"/>
      <point x="138" y="572" type="curve" smooth="yes"/>
      <point x="138" y="142" type="line"/>
      <point x="138" y="55"/>
      <point x="122" y="38"/>
      <point x="37" y="36" type="curve"/>
      <point x="37" y="0" type="line"/>
      <point x="388" y="0" type="line"/>
      <point x="388" y="36" type="line"/>
      <point x="273" y="36"/>
      <point x="257" y="55"/>
      <point x="257" y="147" type="curve" smooth="yes"/>
      <point x="257" y="334" type="line"/>
      <point x="297" y="334"/>
      <point x="313" y="328"/>
      <point x="345" y="287" type="curve" smooth="yes"/>
      <point x="563" y="0" type="line"/>
      <point x="770" y="0" type="line"/>
      <point x="770" y="36" type="line"/>
      <point x="722" y="41"/>
      <point x="680" y="58"/>
      <point x="649" y="95" type="curve" smooth="yes"/>
      <point x="440" y="341" type="line"/>
      <point x="577" y="363"/>
      <point x="636" y="430"/>
    </contour>
    <contour>
      <point x="257" y="651" type="line"/>
      <point x="257" y="660"/>
      <point x="263" y="667"/>
      <point x="273" y="667" type="curve" smooth="yes"/>
      <point x="352" y="667" type="line"/>
      <point x="451" y="667"/>
      <point x="505" y="619"/>
      <point x="505" y="529" type="curve" smooth="yes"/>
      <point x="505" y="426"/>
      <point x="440" y="385"/>
      <point x="321" y="385" type="curve" smooth="yes"/>
      <point x="257" y="385" type="line"/>
    </contour>
    <contour>
      <point x="363" y="770" type="move" name="topcap"/>
    </contour>
    <contour>
      <point x="398" y="0" type="move" name="bottom"/>
    </contour>
  </outline>
</glyph>
<glyph name="U" format="1">
  <advance width="800"/>
  <unicode hex="0055"/>
  <outline>
    <contour>
      <point x="678" y="479" type="line"/>
      <point x="678" y="582"/>
      <point x="683" y="629"/>
      <point x="702" y="654" type="curve" smooth="yes"/>
      <point x="716" y="673"/>
      <point x="740" y="678"/>
      <point x="782" y="678" type="curve"/>
      <point x="782" y="714" type="line"/>
      <point x="498" y="714" type="line"/>
      <point x="498" y="678" type="line"/>
      <point x="541" y="678"/>
      <point x="567" y="673"/>
      <point x="583" y="656" type="curve" smooth="yes"/>
      <point x="605" y="634"/>
      <point x="612" y="586"/>
      <point x="612" y="479" type="curve" smooth="yes"/>
      <point x="612" y="260" type="line"/>
      <point x="612" y="123"/>
      <point x="550" y="55"/>
      <point x="428" y="55" type="curve" smooth="yes"/>
      <point x="297" y="55"/>
      <point x="242" y="117"/>
      <point x="242" y="258" type="curve" smooth="yes"/>
      <point x="242" y="502" type="line"/>
      <point x="242" y="596"/>
      <point x="247" y="636"/>
      <point x="263" y="657" type="curve" smooth="yes"/>
      <point x="277" y="675"/>
      <point x="301" y="678"/>
      <point x="348" y="678" type="curve"/>
      <point x="348" y="714" type="line"/>
      <point x="26" y="714" type="line"/>
      <point x="26" y="678" type="line"/>
      <point x="69" y="678"/>
      <point x="90" y="673"/>
      <point x="103" y="657" type="curve" smooth="yes"/>
      <point x="120" y="636"/>
      <point x="123" y="596"/>
      <point x="123" y="502" type="curve" smooth="yes"/>
      <point x="123" y="258" type="line"/>
      <point x="123" y="64"/>
      <point x="227" y="-9"/>
      <point x="399" y="-9" type="curve" smooth="yes"/>
      <point x="592" y="-9"/>
      <point x="678" y="86"/>
      <point x="678" y="288" type="curve" smooth="yes"/>
    </contour>
    <contour>
      <point x="429" y="770" type="move" name="topcap"/>
    </contour>
    <contour>
      <point x="422" y="0" type="move" name="bottom"/>
    </contour>
  </outline>
</glyph>
<glyph name="V" format="1">
  <advance width="750"/>
  <unicode hex="0056"/>
  <outline>
    <contour>
      <point x="245" y="562" type="line"/>
      <point x="230" y="601"/>
      <point x="224" y="620"/>
      <point x="224" y="637" type="curve" smooth="yes"/>
      <point x="224" y="664"/>
      <point x="241" y="677"/>
      <point x="308" y="677" type="curve"/>
      <point x="308" y="714" type="line"/>
      <point x="-20" y="714" type="line"/>
      <point x="-20" y="677" type="line"/>
      <point x="48" y="673"/>
      <point x="75" y="646"/>
      <point x="115" y="552" type="curve" smooth="yes"/>
      <point x="353" y="-9" type="line"/>
      <point x="402" y="-9" type="line"/>
      <point x="657" y="603" type="line"/>
      <point x="678" y="655"/>
      <point x="706" y="674"/>
      <point x="761" y="678" type="curve"/>
      <point x="761" y="714" type="line"/>
      <point x="513" y="714" type="line"/>
      <point x="513" y="678" type="line"/>
      <point x="572" y="678"/>
      <point x="592" y="667"/>
      <point x="592" y="636" type="curve" smooth="yes"/>
      <point x="592" y="611"/>
      <point x="581" y="575"/>
      <point x="554" y="511" type="curve" smooth="yes"/>
      <point x="408" y="160" type="line"/>
    </contour>
  </outline>
</glyph>
<glyph name="X" format="1">
  <advance width="780"/>
  <unicode hex="0058"/>
  <outline>
    <contour>
      <point x="363" y="319" type="line"/>
      <point x="484" y="153" type="line"/>
      <point x="517" y="109"/>
      <point x="530" y="86"/>
      <point x="530" y="68" type="curve" smooth="yes"/>
      <point x="530" y="47"/>
      <point x="510" y="36"/>
      <point x="448" y="36" type="curve"/>
      <point x="448" y="0" type="line"/>
      <point x="788" y="0" type="line"/>
      <point x="788" y="36" type="line"/>
      <point x="739" y="36"/>
      <point x="712" y="53"/>
      <point x="675" y="102" type="curve" smooth="yes"/>
      <point x="447" y="403" type="line"/>
      <point x="427" y="425" type="line"/>
      <point x="314" y="582" type="line"/>
      <point x="295" y="609"/>
      <point x="285" y="630"/>
      <point x="285" y="645" type="curve" smooth="yes"/>
      <point x="285" y="669"/>
      <point x="307" y="678"/>
      <point x="354" y="678" type="curve"/>
      <point x="354" y="714" type="line"/>
      <point x="18" y="714" type="line"/>
      <point x="18" y="678" type="line"/>
      <point x="66" y="678"/>
      <point x="99" y="663"/>
      <point x="132" y="621" type="curve" smooth="yes"/>
      <point x="351" y="334" type="line"/>
    </contour>
    <contour>
      <point x="350" y="371" type="line"/>
      <point x="142" y="114" type="line"/>
      <point x="92" y="53"/>
      <point x="63" y="36"/>
      <point x="0" y="36" type="curve"/>
      <point x="0" y="0" type="line"/>
      <point x="270" y="0" type="line"/>
      <point x="270" y="36" type="line"/>
      <point x="213" y="36"/>
      <point x="193" y="44"/>
      <point x="193" y="63" type="curve" smooth="yes"/>
      <point x="193" y="89"/>
      <point x="231" y="130"/>
      <point x="299" y="213" type="curve" smooth="yes"/>
      <point x="386" y="320" type="line"/>
    </contour>
    <contour>
      <point x="441" y="371" type="line"/>
      <point x="630" y="612" type="line"/>
      <point x="674" y="671"/>
      <point x="696" y="678"/>
      <point x="752" y="678" type="curve"/>
      <point x="752" y="714" type="line"/>
      <point x="487" y="714" type="line"/>
      <point x="487" y="678" type="line"/>
      <point x="547" y="678"/>
      <point x="568" y="670"/>
      <point x="568" y="649" type="curve" smooth="yes"/>
      <point x="568" y="633"/>
      <point x="556" y="611"/>
      <point x="531" y="579" type="curve" smooth="yes"/>
      <point x="403" y="418" type="line"/>
    </contour>
  </outline>
</glyph>
<glyph name="asciicircum" format="1">
  <advance width="450"/>
  <unicode hex="005E"/>
  <outline>
    <contour>
      <point x="183" y="380" type="line"/>
      <point x="66" y="213" type="line"/>
      <point x="112" y="213" type="line"/>
      <point x="225" y="314" type="line"/>
      <point x="338" y="213" type="line"/>
      <point x="385" y="213" type="line"/>
      <point x="268" y="380" type="line"/>
    </contour>
  </outline>
</glyph>
<glyph name="underscore" format="1">
  <advance width="673"/>
  <unicode hex="005F"/>
  <outline>
    <contour>
      <point x="607" y="-135" type="line"/>
      <point x="607" y="-68" type="line"/>
      <point x="66" y="-68" type="line"/>
      <point x="66" y="-135" type="line"/>
    </contour>
  </outline>
</glyph>
<glyph name="grave" format="1">
  <advance width="266"/>
  <unicode hex="0060"/>
  <outline>
    <contour>
      <point x="248" y="604" type="line"/>
      <point x="129" y="714" type="line"/>
      <point x="103" y="739"/>
      <point x="81" y="749"/>
      <point x="59" y="749" type="curve" smooth="yes"/>
      <point x="34" y="749"/>
      <point x="17" y="736"/>
      <point x="17" y="712" type="curve" smooth="yes"/>
      <point x="17" y="693"/>
      <point x="38" y="678"/>
      <point x="72" y="662" type="curve" smooth="yes"/>
      <point x="198" y="604" type="line"/>
    </contour>
    <contour>
      <point x="147" y="604" type="move" name="_top"/>
    </contour>
  </outline>
</glyph>
<glyph name="e" format="1">
  <advance width="525"/>
  <unicode hex="0065"/>
  <outline>
    <contour>
      <point x="133" y="334" type="line"/>
      <point x="130" y="287" type="line"/>
      <point x="457" y="287" type="line"/>
      <point x="483" y="287"/>
      <point x="486" y="289"/>
      <point x="486" y="307" type="curve" smooth="yes"/>
      <point x="486" y="430"/>
      <point x="418" y="501"/>
      <point x="293" y="501" type="curve"/>
      <point x="140" y="501"/>
      <point x="41" y="400"/>
      <point x="41" y="242" type="curve"/>
      <point x="41" y="84"/>
      <point x="136" y="-7"/>
      <point x="283" y="-7" type="curve"/>
      <point x="363" y="-7"/>
      <point x="434" y="26"/>
      <point x="481" y="82" type="curve"/>
      <point x="456" y="111" type="line"/>
      <point x="411" y="69"/>
      <point x="364" y="47"/>
      <point x="307" y="47" type="curve"/>
      <point x="209" y="47"/>
      <point x="161" y="121"/>
      <point x="161" y="254" type="curve"/>
      <point x="161" y="396"/>
      <point x="216" y="452"/>
      <point x="288" y="452" type="curve"/>
      <point x="347" y="452"/>
      <point x="376" y="414"/>
      <point x="376" y="359" type="curve" smooth="yes"/>
      <point x="376" y="337"/>
      <point x="369" y="334"/>
      <point x="319" y="334" type="curve" smooth="yes"/>
    </contour>
    <contour>
      <point x="290" y="604" type="move" name="top"/>
    </contour>
    <contour>
      <point x="289" y="0" type="move" name="bottom"/>
    </contour>
  </outline>
</glyph>
<glyph name="f" format="1">
  <advance width="397"/>
  <unicode hex="0066"/>
  <outline>
    <contour>
      <point x="18" y="436" type="line"/>
      <point x="121" y="436" type="line"/>
      <point x="121" y="144" type="line"/>
      <point x="121" y="51"/>
      <point x="111" y="38"/>
      <point x="40" y="35" type="curve"/>
      <point x="40" y="0" type="line"/>
      <point x="330" y="0" type="line"/>
      <point x="330" y="35" type="line"/>
      <point x="250" y="37"/>
      <point x="231" y="59"/>
      <point x="231" y="152" type="curve" smooth="yes"/>
      <point x="231" y="436" type="line"/>
      <point x="381" y="436" type="line"/>
      <point x="381" y="484" type="line"/>
      <point x="231" y="484" type="line"/>
      <point x="231" y="566" type="line"/>
      <point x="231" y="681"/>
      <point x="261" y="722"/>
      <point x="314" y="722" type="curve" smooth="yes"/>
      <point x="340" y="722"/>
      <point x="358" y="709"/>
      <point x="376" y="688" type="curve" smooth="yes"/>
      <point x="396" y="664"/>
      <point x="412" y="649"/>
      <point x="437" y="649" type="curve" smooth="yes"/>
      <point x="464" y="649"/>
      <point x="484" y="667"/>
      <point x="484" y="697" type="curve" smooth="yes"/>
      <point x="484" y="741"/>
      <point x="426" y="770"/>
      <point x="343" y="770" type="curve" smooth="yes"/>
      <point x="202" y="770"/>
      <point x="121" y="694"/>
      <point x="121" y="548" type="curve" smooth="yes"/>
      <point x="121" y="484" type="line"/>
      <point x="18" y="484" type="line"/>
    </contour>
  </outline>
</glyph>
<glyph name="g" format="1">
  <advance width="587"/>
  <unicode hex="0067"/>
  <outline>
    <contour>
      <point x="536" y="-56" type="curve" smooth="yes"/>
      <point x="536" y="27"/>
      <point x="488" y="76"/>
      <point x="362" y="86" type="curve" smooth="yes"/>
      <point x="228" y="95" type="line"/>
      <point x="193" y="98"/>
      <point x="169" y="106"/>
      <point x="169" y="125" type="curve" smooth="yes"/>
      <point x="169" y="145"/>
      <point x="195" y="155"/>
      <point x="260" y="160" type="curve" smooth="yes"/>
      <point x="395" y="173"/>
      <point x="472" y="232"/>
      <point x="472" y="337" type="curve" smooth="yes"/>
      <point x="472" y="436"/>
      <point x="385" y="501"/>
      <point x="272" y="501" type="curve" smooth="yes"/>
      <point x="145" y="501"/>
      <point x="68" y="431"/>
      <point x="68" y="338" type="curve" smooth="yes"/>
      <point x="68" y="263"/>
      <point x="110" y="209"/>
      <point x="180" y="188" type="curve"/>
      <point x="180" y="184" type="line"/>
      <point x="123" y="167"/>
      <point x="74" y="135"/>
      <point x="74" y="89" type="curve"/>
      <point x="74" y="45"/>
      <point x="112" y="14"/>
      <point x="185" y="7" type="curve" smooth="yes"/>
      <point x="337" y="-6" type="line"/>
      <point x="411" y="-12"/>
      <point x="453" y="-34"/>
      <point x="453" y="-89" type="curve" smooth="yes"/>
      <point x="453" y="-151"/>
      <point x="395" y="-192"/>
      <point x="281" y="-192" type="curve"/>
      <point x="188" y="-192"/>
      <point x="133" y="-166"/>
      <point x="133" y="-110" type="curve"/>
      <point x="133" y="-74"/>
      <point x="156" y="-57"/>
      <point x="189" y="-48" type="curve"/>
      <point x="174" y="-32"/>
      <point x="146" y="-19"/>
      <point x="115" y="-19" type="curve" smooth="yes"/>
      <point x="66" y="-19"/>
      <point x="25" y="-48"/>
      <point x="25" y="-99" type="curve"/>
      <point x="25" y="-181"/>
      <point x="117" y="-241"/>
      <point x="278" y="-241" type="curve"/>
      <point x="438" y="-241"/>
      <point x="536" y="-161"/>
    </contour>
    <contour>
      <point x="601" y="448" type="curve"/>
      <point x="601" y="480"/>
      <point x="578" y="502"/>
      <point x="531" y="502" type="curve"/>
      <point x="491" y="502"/>
      <point x="449" y="485"/>
      <point x="391" y="437" type="curve"/>
      <point x="398" y="429"/>
      <point x="414" y="410"/>
      <point x="421" y="403" type="curve"/>
      <point x="454" y="433"/>
      <point x="469" y="439"/>
      <point x="484" y="439" type="curve" smooth="yes"/>
      <point x="518" y="439"/>
      <point x="520" y="402"/>
      <point x="559" y="402" type="curve" smooth="yes"/>
      <point x="584" y="402"/>
      <point x="601" y="421"/>
    </contour>
    <contour>
      <point x="356" y="334" type="curve" smooth="yes"/>
      <point x="356" y="253"/>
      <point x="326" y="206"/>
      <point x="273" y="206" type="curve" smooth="yes"/>
      <point x="217" y="206"/>
      <point x="183" y="257"/>
      <point x="183" y="335" type="curve" smooth="yes"/>
      <point x="183" y="412"/>
      <point x="216" y="460"/>
      <point x="272" y="460" type="curve" smooth="yes"/>
      <point x="326" y="460"/>
      <point x="356" y="414"/>
    </contour>
  </outline>
</glyph>
<glyph name="h" format="1">
  <advance width="646"/>
  <unicode hex="0068"/>
  <outline>
    <contour>
      <point x="368" y="501" type="curve"/>
      <point x="299" y="501"/>
      <point x="245" y="473"/>
      <point x="212" y="427" type="curve"/>
      <point x="208" y="427" type="line"/>
      <point x="208" y="770" type="line"/>
      <point x="19" y="735" type="line"/>
      <point x="19" y="702" type="line"/>
      <point x="75" y="702"/>
      <point x="88" y="695"/>
      <point x="93" y="665" type="curve" smooth="yes"/>
      <point x="98" y="643"/>
      <point x="100" y="601"/>
      <point x="100" y="528" type="curve" smooth="yes"/>
      <point x="100" y="143" type="line"/>
      <point x="100" y="50"/>
      <point x="92" y="39"/>
      <point x="19" y="35" type="curve"/>
      <point x="19" y="0" type="line"/>
      <point x="284" y="0" type="line"/>
      <point x="284" y="35" type="line"/>
      <point x="212" y="39"/>
      <point x="210" y="48"/>
      <point x="210" y="150" type="curve" smooth="yes"/>
      <point x="210" y="276" type="line"/>
      <point x="210" y="387"/>
      <point x="252" y="447"/>
      <point x="332" y="447" type="curve"/>
      <point x="404" y="447"/>
      <point x="441" y="402"/>
      <point x="441" y="272" type="curve"/>
      <point x="441" y="143" type="line"/>
      <point x="441" y="50"/>
      <point x="438" y="38"/>
      <point x="366" y="35" type="curve"/>
      <point x="366" y="0" type="line"/>
      <point x="629" y="0" type="line"/>
      <point x="629" y="35" type="line"/>
      <point x="558" y="39"/>
      <point x="552" y="48"/>
      <point x="552" y="150" type="curve" smooth="yes"/>
      <point x="552" y="293" type="line"/>
      <point x="552" y="436"/>
      <point x="482" y="501"/>
    </contour>
    <contour>
      <point x="363" y="604" type="move" name="top"/>
    </contour>
    <contour>
      <point x="324" y="0" type="move" name="bottom"/>
    </contour>
  </outline>
</glyph>
<glyph name="j" format="1">
  <advance width="287"/>
  <unicode hex="006A"/>
  <outline>
    <contour>
      <point x="209" y="501" type="line"/>
      <point x="9" y="465" type="line"/>
      <point x="9" y="433" type="line"/>
      <point x="68" y="433"/>
      <point x="84" y="425"/>
      <point x="90" y="397" type="curve" smooth="yes"/>
      <point x="94" y="380"/>
      <point x="97" y="334"/>
      <point x="97" y="264" type="curve" smooth="yes"/>
      <point x="97" y="-67" type="line"/>
      <point x="97" y="-163"/>
      <point x="80" y="-197"/>
      <point x="28" y="-197" type="curve" smooth="yes"/>
      <point x="-1" y="-197"/>
      <point x="-12" y="-185"/>
      <point x="-26" y="-156" type="curve" smooth="yes"/>
      <point x="-39" y="-127"/>
      <point x="-48" y="-102"/>
      <point x="-82" y="-102" type="curve"/>
      <point x="-114" y="-102"/>
      <point x="-134" y="-123"/>
      <point x="-134" y="-150" type="curve"/>
      <point x="-134" y="-206"/>
      <point x="-78" y="-241"/>
      <point x="12" y="-241" type="curve" smooth="yes"/>
      <point x="148" y="-241"/>
      <point x="209" y="-159"/>
      <point x="209" y="3" type="curve" smooth="yes"/>
    </contour>
    <contour>
      <point x="63" y="683" type="curve" smooth="yes"/>
      <point x="63" y="643"/>
      <point x="96" y="610"/>
      <point x="137" y="610" type="curve" smooth="yes"/>
      <point x="179" y="610"/>
      <point x="211" y="643"/>
      <point x="211" y="683" type="curve" smooth="yes"/>
      <point x="211" y="725"/>
      <point x="179" y="758"/>
      <point x="137" y="758" type="curve" smooth="yes"/>
      <point x="96" y="758"/>
      <point x="63" y="725"/>
    </contour>
    <contour>
      <point x="149" y="604" type="move" name="top"/>
    </contour>
  </outline>
</glyph>
<glyph name="m" format="1">
  <advance width="987"/>
  <unicode hex="006D"/>
  <outline>
    <contour>
      <point x="296" y="35" type="line"/>
      <point x="227" y="39"/>
      <point x="222" y="48"/>
      <point x="222" y="150" type="curve" smooth="yes"/>
      <point x="222" y="290" type="line"/>
      <point x="222" y="384"/>
      <point x="264" y="445"/>
      <point x="341" y="445" type="curve"/>
      <point x="415" y="445"/>
      <point x="447" y="400"/>
      <point x="447" y="278" type="curve"/>
      <point x="447" y="143" type="line"/>
      <point x="447" y="50"/>
      <point x="444" y="39"/>
      <point x="377" y="35" type="curve"/>
      <point x="377" y="0" type="line"/>
      <point x="630" y="0" type="line"/>
      <point x="630" y="35" type="line"/>
      <point x="563" y="39"/>
      <point x="557" y="49"/>
      <point x="557" y="150" type="curve" smooth="yes"/>
      <point x="557" y="284" type="line"/>
      <point x="557" y="379"/>
      <point x="598" y="446"/>
      <point x="676" y="446" type="curve"/>
      <point x="750" y="446"/>
      <point x="782" y="399"/>
      <point x="782" y="278" type="curve"/>
      <point x="782" y="143" type="line"/>
      <point x="782" y="50"/>
      <point x="780" y="38"/>
      <point x="711" y="35" type="curve"/>
      <point x="711" y="0" type="line"/>
      <point x="971" y="0" type="line"/>
      <point x="971" y="35" type="line"/>
      <point x="899" y="39"/>
      <point x="893" y="49"/>
      <point x="893" y="150" type="curve" smooth="yes"/>
      <point x="893" y="293" type="line"/>
      <point x="893" y="439"/>
      <point x="826" y="501"/>
      <point x="714" y="501" type="curve"/>
      <point x="633" y="501"/>
      <point x="578" y="469"/>
      <point x="536" y="408" type="curve"/>
      <point x="533" y="408" type="line"/>
      <point x="506" y="470"/>
      <point x="453" y="501"/>
      <point x="375" y="501" type="curve"/>
      <point x="307" y="501"/>
      <point x="251" y="474"/>
      <point x="210" y="414" type="curve"/>
      <point x="205" y="414" type="line"/>
      <point x="194" y="501" type="line"/>
      <point x="29" y="465" type="line"/>
      <point x="29" y="435" type="line"/>
      <point x="85" y="435"/>
      <point x="98" y="430"/>
      <point x="105" y="397" type="curve" smooth="yes"/>
      <point x="109" y="381"/>
      <point x="111" y="333"/>
      <point x="111" y="262" type="curve" smooth="yes"/>
      <point x="111" y="142" type="line"/>
      <point x="111" y="49"/>
      <point x="102" y="39"/>
      <point x="30" y="34" type="curve"/>
      <point x="30" y="0" type="line"/>
      <point x="296" y="0" type="line"/>
    </contour>
  </outline>
</glyph>
<glyph name="o" format="1">
  <advance width="598"/>
  <unicode hex="006F"/>
  <outline>
    <contour>
      <point x="297" y="501" type="curve" smooth="yes"/>
      <point x="150" y="501"/>
      <point x="40" y="396"/>
      <point x="40" y="250" type="curve" smooth="yes"/>
      <point x="40" y="98"/>
      <point x="150" y="-9"/>
      <point x="297" y="-9" type="curve" smooth="yes"/>
      <point x="445" y="-9"/>
      <point x="558" y="99"/>
      <point x="558" y="250" type="curve" smooth="yes"/>
      <point x="558" y="395"/>
      <point x="445" y="501"/>
    </contour>
    <contour>
      <point x="297" y="452" type="curve" smooth="yes"/>
      <point x="383" y="452"/>
      <point x="437" y="369"/>
      <point x="437" y="249" type="curve" smooth="yes"/>
      <point x="437" y="124"/>
      <point x="384" y="43"/>
      <point x="297" y="43" type="curve" smooth="yes"/>
      <point x="212" y="43"/>
      <point x="161" y="123"/>
      <point x="161" y="249" type="curve" smooth="yes"/>
      <point x="161" y="370"/>
      <point x="212" y="452"/>
    </contour>
    <contour>
      <point x="297" y="604" type="move" name="top"/>
    </contour>
    <contour>
      <point x="297" y="0" type="move" name="bottom"/>
    </contour>
  </outline>
</glyph>
<glyph name="p" format="1">
  <advance width="625"/>
  <unicode hex="0070"/>
  <outline>
    <contour>
      <point x="360" y="501" type="curve"/>
      <point x="293" y="501"/>
      <point x="240" y="475"/>
      <point x="204" y="428" type="curve"/>
      <point x="201" y="428" type="line"/>
      <point x="201" y="497" type="line"/>
      <point x="16" y="466" type="line"/>
      <point x="16" y="433" type="line"/>
      <point x="73" y="433"/>
      <point x="91" y="424"/>
      <point x="97" y="395" type="curve" smooth="yes"/>
      <point x="101" y="376"/>
      <point x="103" y="324"/>
      <point x="103" y="259" type="curve" smooth="yes"/>
      <point x="103" y="-87" type="line"/>
      <point x="103" y="-176"/>
      <point x="89" y="-194"/>
      <point x="18" y="-197" type="curve"/>
      <point x="18" y="-232" type="line"/>
      <point x="322" y="-232" type="line"/>
      <point x="322" y="-197" type="line"/>
      <point x="228" y="-194"/>
      <point x="214" y="-179"/>
      <point x="214" y="-80" type="curve"/>
      <point x="214" y="52" type="line"/>
      <point x="218" y="52" type="line"/>
      <point x="253" y="10"/>
      <point x="300" y="-9"/>
      <point x="356" y="-9" type="curve"/>
      <point x="491" y="-9"/>
      <point x="584" y="94"/>
      <point x="584" y="246" type="curve" smooth="yes"/>
      <point x="584" y="396"/>
      <point x="492" y="501"/>
    </contour>
    <contour>
      <point x="339" y="452" type="curve"/>
      <point x="424" y="452"/>
      <point x="464" y="377"/>
      <point x="464" y="242" type="curve" smooth="yes"/>
      <point x="464" y="114"/>
      <point x="426" y="43"/>
      <point x="340" y="43" type="curve"/>
      <point x="277" y="43"/>
      <point x="214" y="88"/>
      <point x="214" y="215" type="curve" smooth="yes"/>
      <point x="214" y="284" type="line"/>
      <point x="214" y="402"/>
      <point x="271" y="452"/>
    </contour>
  </outline>
</glyph>
<glyph name="s" format="1">
  <advance width="447"/>
  <unicode hex="0073"/>
  <outline>
    <contour>
      <point x="87" y="32" type="line"/>
      <point x="122" y="10"/>
      <point x="175" y="-9"/>
      <point x="233" y="-9" type="curve"/>
      <point x="329" y="-9"/>
      <point x="396" y="47"/>
      <point x="396" y="128" type="curve"/>
      <point x="396" y="196"/>
      <point x="354" y="234"/>
      <point x="280" y="278" type="curve" smooth="yes"/>
      <point x="235" y="305" type="line"/>
      <point x="173" y="343"/>
      <point x="144" y="367"/>
      <point x="144" y="407" type="curve" smooth="yes"/>
      <point x="144" y="439"/>
      <point x="168" y="458"/>
      <point x="204" y="458" type="curve" smooth="yes"/>
      <point x="248" y="458"/>
      <point x="298" y="433"/>
      <point x="326" y="355" type="curve"/>
      <point x="356" y="355" type="line"/>
      <point x="356" y="492" type="line"/>
      <point x="336" y="492" type="line"/>
      <point x="318" y="469" type="line"/>
      <point x="295" y="483"/>
      <point x="255" y="501"/>
      <point x="201" y="501" type="curve"/>
      <point x="100" y="501"/>
      <point x="44" y="441"/>
      <point x="44" y="369" type="curve"/>
      <point x="44" y="306"/>
      <point x="74" y="265"/>
      <point x="145" y="224" type="curve" smooth="yes"/>
      <point x="210" y="186" type="line"/>
      <point x="269" y="151"/>
      <point x="299" y="125"/>
      <point x="299" y="91" type="curve"/>
      <point x="299" y="56"/>
      <point x="274" y="35"/>
      <point x="224" y="35" type="curve"/>
      <point x="155" y="35"/>
      <point x="96" y="70"/>
      <point x="73" y="164" type="curve"/>
      <point x="43" y="164" type="line"/>
      <point x="43" y="0" type="line"/>
      <point x="67" y="0" type="line"/>
    </contour>
    <contour>
      <point x="210" y="604" type="move" name="top"/>
    </contour>
    <contour>
      <point x="227" y="1" type="move" name="bottom"/>
    </contour>
  </outline>
</glyph>
<glyph name="t" format="1">
  <advance width="362"/>
  <unicode hex="0074"/>
  <outline>
    <contour>
      <point x="99" y="436" type="line"/>
      <point x="99" y="131" type="line"/>
      <point x="99" y="29"/>
      <point x="148" y="-9"/>
      <point x="228" y="-9" type="curve"/>
      <point x="285" y="-9"/>
      <point x="332" y="15"/>
      <point x="355" y="59" type="curve"/>
      <point x="333" y="81" type="line"/>
      <point x="319" y="55"/>
      <point x="295" y="43"/>
      <point x="265" y="43" type="curve"/>
      <point x="225" y="43"/>
      <point x="210" y="67"/>
      <point x="210" y="117" type="curve"/>
      <point x="210" y="436" type="line"/>
      <point x="326" y="436" type="line"/>
      <point x="326" y="484" type="line"/>
      <point x="210" y="484" type="line"/>
      <point x="210" y="599" type="line"/>
      <point x="174" y="599" type="line"/>
      <point x="143" y="530"/>
      <point x="106" y="496"/>
      <point x="31" y="474" type="curve"/>
      <point x="31" y="436" type="line"/>
    </contour>
    <contour>
      <point x="245" y="-13" type="move" name="bottom"/>
    </contour>
  </outline>
</glyph>
<glyph name="v" format="1">
  <advance width="579"/>
  <unicode hex="0076"/>
  <outline>
    <contour>
      <point x="264" y="-10" type="line"/>
      <point x="324" y="-10" type="line"/>
      <point x="486" y="366" type="line"/>
      <point x="517" y="441"/>
      <point x="531" y="452"/>
      <point x="569" y="457" type="curve"/>
      <point x="569" y="492" type="line"/>
      <point x="376" y="492" type="line"/>
      <point x="376" y="457" type="line"/>
      <point x="420" y="457"/>
      <point x="438" y="448"/>
      <point x="438" y="420" type="curve" smooth="yes"/>
      <point x="438" y="401"/>
      <point x="427" y="370"/>
      <point x="410" y="329" type="curve" smooth="yes"/>
      <point x="323" y="119" type="line"/>
      <point x="320" y="119" type="line"/>
      <point x="220" y="367" type="line"/>
      <point x="211" y="390"/>
      <point x="205" y="410"/>
      <point x="205" y="424" type="curve" smooth="yes"/>
      <point x="205" y="446"/>
      <point x="220" y="456"/>
      <point x="271" y="457" type="curve"/>
      <point x="271" y="492" type="line"/>
      <point x="6" y="492" type="line"/>
      <point x="6" y="457" type="line"/>
      <point x="51" y="456"/>
      <point x="64" y="446"/>
      <point x="95" y="374" type="curve" smooth="yes"/>
    </contour>
  </outline>
</glyph>
<glyph name="x" format="1">
  <advance width="588"/>
  <unicode hex="0078"/>
  <outline>
    <contour>
      <point x="320" y="295" type="line"/>
      <point x="244" y="401" type="line"/>
      <point x="235" y="413"/>
      <point x="231" y="423"/>
      <point x="231" y="432" type="curve"/>
      <point x="231" y="449"/>
      <point x="248" y="457"/>
      <point x="286" y="457" type="curve"/>
      <point x="286" y="492" type="line"/>
      <point x="24" y="492" type="line"/>
      <point x="24" y="457" type="line"/>
      <point x="57" y="457"/>
      <point x="81" y="449"/>
      <point x="106" y="414" type="curve" smooth="yes"/>
      <point x="253" y="218" type="line"/>
      <point x="270" y="201" type="line"/>
      <point x="341" y="112" type="line"/>
      <point x="360" y="88"/>
      <point x="369" y="72"/>
      <point x="369" y="59" type="curve" smooth="yes"/>
      <point x="369" y="41"/>
      <point x="348" y="35"/>
      <point x="306" y="35" type="curve"/>
      <point x="306" y="0" type="line"/>
      <point x="581" y="0" type="line"/>
      <point x="581" y="35" type="line"/>
      <point x="543" y="35"/>
      <point x="517" y="45"/>
      <point x="480" y="94" type="curve" smooth="yes"/>
      <point x="335" y="278" type="line"/>
    </contour>
    <contour>
      <point x="255" y="247" type="line"/>
      <point x="122" y="97" type="line"/>
      <point x="79" y="44"/>
      <point x="58" y="35"/>
      <point x="9" y="35" type="curve"/>
      <point x="9" y="0" type="line"/>
      <point x="231" y="0" type="line"/>
      <point x="231" y="35" type="line"/>
      <point x="197" y="35"/>
      <point x="176" y="43"/>
      <point x="176" y="62" type="curve" smooth="yes"/>
      <point x="176" y="75"/>
      <point x="184" y="92"/>
      <point x="204" y="115" type="curve" smooth="yes"/>
      <point x="284" y="210" type="line"/>
    </contour>
    <contour>
      <point x="331" y="249" type="line"/>
      <point x="446" y="384" type="line"/>
      <point x="491" y="437"/>
      <point x="515" y="456"/>
      <point x="560" y="457" type="curve"/>
      <point x="560" y="492" type="line"/>
      <point x="351" y="492" type="line"/>
      <point x="351" y="457" type="line"/>
      <point x="388" y="457"/>
      <point x="407" y="448"/>
      <point x="407" y="430" type="curve" smooth="yes"/>
      <point x="407" y="417"/>
      <point x="397" y="400"/>
      <point x="380" y="379" type="curve" smooth="yes"/>
      <point x="305" y="286" type="line"/>
    </contour>
  </outline>
</glyph>
<glyph name="braceleft" format="1">
  <advance width="326"/>
  <unicode hex="007B"/>
  <outline>
    <contour>
      <point x="213" y="184" type="line"/>
      <point x="213" y="258"/>
      <point x="195" y="302"/>
      <point x="117" y="316" type="curve"/>
      <point x="117" y="320" type="line"/>
      <point x="200" y="337"/>
      <point x="213" y="388"/>
      <point x="213" y="464" type="curve" smooth="yes"/>
      <point x="213" y="629" type="line"/>
      <point x="213" y="693"/>
      <point x="232" y="730"/>
      <point x="291" y="744" type="curve"/>
      <point x="291" y="770" type="line"/>
      <point x="146" y="770"/>
      <point x="108" y="729"/>
      <point x="108" y="611" type="curve" smooth="yes"/>
      <point x="108" y="451" type="line"/>
      <point x="108" y="380"/>
      <point x="94" y="346"/>
      <point x="23" y="331" type="curve"/>
      <point x="23" y="304" type="line"/>
      <point x="88" y="298"/>
      <point x="108" y="239"/>
      <point x="108" y="183" type="curve" smooth="yes"/>
      <point x="108" y="4" type="line"/>
      <point x="108" y="-108"/>
      <point x="157" y="-139"/>
      <point x="295" y="-139" type="curve"/>
      <point x="295" y="-114" type="line"/>
      <point x="230" y="-97"/>
      <point x="213" y="-63"/>
      <point x="213" y="2" type="curve" smooth="yes"/>
    </contour>
  </outline>
</glyph>
<glyph name="sterling" format="1">
  <advance width="669"/>
  <unicode hex="00A3"/>
  <outline>
    <contour>
      <point x="242" y="130" type="curve"/>
      <point x="216" y="146"/>
      <point x="179" y="164"/>
      <point x="138" y="164" type="curve"/>
      <point x="78" y="164"/>
      <point x="35" y="130"/>
      <point x="35" y="77" type="curve" smooth="yes"/>
      <point x="35" y="22"/>
      <point x="72" y="-10"/>
      <point x="136" y="-10" type="curve"/>
      <point x="200" y="-10"/>
      <point x="244" y="16"/>
      <point x="269" y="50" type="curve"/>
      <point x="361" y="11"/>
      <point x="428" y="-11"/>
      <point x="493" y="-11" type="curve"/>
      <point x="588" y="-11"/>
      <point x="637" y="43"/>
      <point x="624" y="156" type="curve"/>
      <point x="615" y="159" type="line"/>
      <point x="577" y="115"/>
      <point x="533" y="84"/>
      <point x="444" y="84" type="curve" smooth="yes"/>
      <point x="406" y="85"/>
      <point x="356" y="99"/>
      <point x="318" y="110" type="curve"/>
      <point x="340" y="145"/>
      <point x="357" y="188"/>
      <point x="357" y="240" type="curve" smooth="yes"/>
      <point x="357" y="278"/>
      <point x="350" y="325"/>
      <point x="332" y="372" type="curve" smooth="yes"/>
      <point x="307" y="436" type="line"/>
      <point x="287" y="489"/>
      <point x="276" y="531"/>
      <point x="276" y="568" type="curve" smooth="yes"/>
      <point x="276" y="640"/>
      <point x="314" y="675"/>
      <point x="376" y="675" type="curve"/>
      <point x="496" y="675"/>
      <point x="459" y="562"/>
      <point x="535" y="562" type="curve" smooth="yes"/>
      <point x="566" y="562"/>
      <point x="585" y="581"/>
      <point x="585" y="613" type="curve" smooth="yes"/>
      <point x="585" y="677"/>
      <point x="500" y="724"/>
      <point x="388" y="724" type="curve" smooth="yes"/>
      <point x="241" y="724"/>
      <point x="155" y="629"/>
      <point x="155" y="531" type="curve"/>
      <point x="155" y="482"/>
      <point x="170" y="437"/>
      <point x="189" y="394" type="curve" smooth="yes"/>
      <point x="219" y="329" type="line"/>
      <point x="239" y="285"/>
      <point x="255" y="241"/>
      <point x="255" y="193" type="curve"/>
      <point x="255" y="162"/>
      <point x="248" y="142"/>
    </contour>
    <contour>
      <point x="225" y="79" type="curve"/>
      <point x="204" y="58"/>
      <point x="177" y="46"/>
      <point x="148" y="46" type="curve" smooth="yes"/>
      <point x="121" y="46"/>
      <point x="101" y="58"/>
      <point x="101" y="79" type="curve"/>
      <point x="101" y="98"/>
      <point x="116" y="109"/>
      <point x="141" y="109" type="curve"/>
      <point x="164" y="109"/>
      <point x="193" y="98"/>
    </contour>
    <contour>
      <point x="526" y="344" type="line"/>
      <point x="526" y="399" type="line"/>
      <point x="83" y="399" type="line"/>
      <point x="83" y="344" type="line"/>
    </contour>
  </outline>
</glyph>
<glyph name="brokenbar" format="1">
  <advance width="279"/>
  <unicode hex="00A6"/>
  <outline>
    <contour>
      <point x="96" y="695" type="line"/>
      <point x="96" y="339" type="line"/>
      <point x="182" y="339" type="line"/>
      <point x="182" y="695" type="line"/>
    </contour>
    <contour>
      <point x="96" y="190" type="line"/>
      <point x="96" y="-167" type="line"/>
      <point x="182" y="-167" type="line"/>
      <point x="182" y="190" type="line"/>
    </contour>
  </outline>
</glyph>
<glyph name="section" format="1">
  <advance width="511"/>
  <unicode hex="00A7"/>
  <outline>
    <contour>
      <point x="207" y="265" type="line"/>
      <point x="160" y="295"/>
      <point x="128" y="325"/>
      <point x="128" y="363" type="curve" smooth="yes"/>
      <point x="128" y="389"/>
      <point x="144" y="413"/>
      <point x="180" y="431" type="curve"/>
      <point x="294" y="358" type="line"/>
      <point x="353" y="321"/>
      <point x="382" y="291"/>
      <point x="382" y="254" type="curve" smooth="yes"/>
      <point x="382" y="227"/>
      <point x="368" y="205"/>
      <point x="335" y="184" type="curve"/>
    </contour>
    <contour>
      <point x="255" y="729" type="curve" smooth="yes"/>
      <point x="308" y="729"/>
      <point x="348" y="710"/>
      <point x="348" y="686" type="curve" smooth="yes"/>
      <point x="348" y="667"/>
      <point x="321" y="661"/>
      <point x="321" y="628" type="curve" smooth="yes"/>
      <point x="321" y="596"/>
      <point x="345" y="573"/>
      <point x="379" y="573" type="curve" smooth="yes"/>
      <point x="415" y="573"/>
      <point x="438" y="600"/>
      <point x="438" y="641" type="curve" smooth="yes"/>
      <point x="438" y="716"/>
      <point x="361" y="770"/>
      <point x="256" y="770" type="curve" smooth="yes"/>
      <point x="140" y="770"/>
      <point x="58" y="704"/>
      <point x="58" y="607" type="curve" smooth="yes"/>
      <point x="58" y="545"/>
      <point x="91" y="497"/>
      <point x="137" y="460" type="curve"/>
      <point x="81" y="428"/>
      <point x="36" y="382"/>
      <point x="36" y="316" type="curve" smooth="yes"/>
      <point x="36" y="250"/>
      <point x="80" y="201"/>
      <point x="189" y="133" type="curve" smooth="yes"/>
      <point x="252" y="93" type="line"/>
      <point x="331" y="44"/>
      <point x="361" y="9"/>
      <point x="361" y="-33" type="curve" smooth="yes"/>
      <point x="361" y="-87"/>
      <point x="321" y="-122"/>
      <point x="246" y="-122" type="curve" smooth="yes"/>
      <point x="186" y="-122"/>
      <point x="136" y="-100"/>
      <point x="136" y="-75" type="curve" smooth="yes"/>
      <point x="136" y="-54"/>
      <point x="171" y="-42"/>
      <point x="171" y="-5" type="curve" smooth="yes"/>
      <point x="171" y="27"/>
      <point x="145" y="52"/>
      <point x="111" y="52" type="curve" smooth="yes"/>
      <point x="74" y="52"/>
      <point x="51" y="24"/>
      <point x="51" y="-22" type="curve" smooth="yes"/>
      <point x="51" y="-105"/>
      <point x="131" y="-166"/>
      <point x="244" y="-166" type="curve" smooth="yes"/>
      <point x="369" y="-166"/>
      <point x="457" y="-96"/>
      <point x="457" y="5" type="curve" smooth="yes"/>
      <point x="457" y="66"/>
      <point x="427" y="113"/>
      <point x="380" y="153" type="curve"/>
      <point x="442" y="194"/>
      <point x="472" y="238"/>
      <point x="472" y="296" type="curve" smooth="yes"/>
      <point x="472" y="365"/>
      <point x="427" y="417"/>
      <point x="321" y="484" type="curve" smooth="yes"/>
      <point x="258" y="525" type="line"/>
      <point x="183" y="573"/>
      <point x="151" y="605"/>
      <point x="151" y="648" type="curve" smooth="yes"/>
      <point x="151" y="696"/>
      <point x="190" y="729"/>
    </contour>
  </outline>
</glyph>
<glyph name="copyright" format="1">
  <advance width="830"/>
  <unicode hex="00A9"/>
  <outline>
    <contour>
      <point x="782" y="358" type="curve" smooth="yes"/>
      <point x="782" y="562"/>
      <point x="617" y="724"/>
      <point x="412" y="724" type="curve" smooth="yes"/>
      <point x="210" y="724"/>
      <point x="48" y="559"/>
      <point x="48" y="357" type="curve" smooth="yes"/>
      <point x="48" y="156"/>
      <point x="211" y="-9"/>
      <point x="413" y="-9" type="curve" smooth="yes"/>
      <point x="617" y="-9"/>
      <point x="782" y="154"/>
    </contour>
    <contour>
      <point x="732" y="358" type="curve" smooth="yes"/>
      <point x="732" y="183"/>
      <point x="589" y="40"/>
      <point x="413" y="40" type="curve" smooth="yes"/>
      <point x="237" y="40"/>
      <point x="97" y="183"/>
      <point x="97" y="357" type="curve" smooth="yes"/>
      <point x="97" y="531"/>
      <point x="236" y="675"/>
      <point x="412" y="675" type="curve" smooth="yes"/>
      <point x="589" y="675"/>
      <point x="732" y="535"/>
    </contour>
    <contour>
      <point x="552" y="283" type="line"/>
      <point x="534" y="221"/>
      <point x="493" y="188"/>
      <point x="432" y="188" type="curve" smooth="yes"/>
      <point x="346" y="188"/>
      <point x="305" y="246"/>
      <point x="305" y="352" type="curve" smooth="yes"/>
      <point x="305" y="460"/>
      <point x="347" y="524"/>
      <point x="430" y="524" type="curve" smooth="yes"/>
      <point x="491" y="524"/>
      <point x="539" y="491"/>
      <point x="554" y="438" type="curve"/>
      <point x="578" y="438" type="line"/>
      <point x="573" y="560" type="line"/>
      <point x="554" y="560" type="line"/>
      <point x="545" y="523" type="line"/>
      <point x="505" y="550"/>
      <point x="469" y="565"/>
      <point x="421" y="565" type="curve" smooth="yes"/>
      <point x="295" y="565"/>
      <point x="206" y="477"/>
      <point x="206" y="348" type="curve" smooth="yes"/>
      <point x="206" y="225"/>
      <point x="289" y="146"/>
      <point x="419" y="146" type="curve" smooth="yes"/>
      <point x="513" y="146"/>
      <point x="565" y="202"/>
      <point x="583" y="283" type="curve"/>
    </contour>
  </outline>
</glyph>
<glyph name="logicalnot" format="1">
  <advance width="585"/>
  <unicode hex="00AC"/>
  <outline>
    <contour>
      <point x="454" y="102" type="line"/>
      <point x="510" y="102" type="line"/>
      <point x="510" y="341" type="line"/>
      <point x="72" y="341" type="line"/>
      <point x="72" y="286" type="line"/>
      <point x="454" y="286" type="line"/>
    </contour>
  </outline>
</glyph>
<glyph name="uni00AD" format="1">
  <advance width="431"/>
  <unicode hex="00AD"/>
  <outline>
    <contour>
      <point x="364" y="227" type="line"/>
      <point x="364" y="310" type="line"/>
      <point x="66" y="310" type="line"/>
      <point x="66" y="227" type="line"/>
    </contour>
  </outline>
</glyph>
<glyph name="macron" format="1">
  <advance width="294"/>
  <unicode hex="00AF"/>
  <outline>
    <contour>
      <point x="275" y="647" type="line"/>
      <point x="275" y="700" type="line"/>
      <point x="19" y="700" type="line"/>
      <point x="19" y="647" type="line"/>
    </contour>
    <contour>
      <point x="147" y="604" type="move" name="_top"/>
    </contour>
  </outline>
</glyph>
<glyph name="twosuperior" format="1">
  <advance width="264"/>
  <unicode hex="00B2"/>
  <outline>
    <contour>
      <point x="94" y="477" type="line"/>
      <point x="166" y="529"/>
      <point x="225" y="584"/>
      <point x="225" y="644" type="curve" smooth="yes"/>
      <point x="225" y="690"/>
      <point x="184" y="724"/>
      <point x="127" y="724" type="curve" smooth="yes"/>
      <point x="72" y="724"/>
      <point x="31" y="691"/>
      <point x="31" y="647" type="curve" smooth="yes"/>
      <point x="31" y="614"/>
      <point x="53" y="591"/>
      <point x="81" y="591" type="curve" smooth="yes"/>
      <point x="100" y="591"/>
      <point x="114" y="601"/>
      <point x="115" y="615" type="curve"/>
      <point x="94" y="615"/>
      <point x="78" y="631"/>
      <point x="78" y="655" type="curve" smooth="yes"/>
      <point x="78" y="679"/>
      <point x="96" y="698"/>
      <point x="120" y="698" type="curve" smooth="yes"/>
      <point x="150" y="698"/>
      <point x="168" y="678"/>
      <point x="168" y="644" type="curve" smooth="yes"/>
      <point x="168" y="593"/>
      <point x="142" y="548"/>
      <point x="29" y="448" type="curve"/>
      <point x="29" y="434" type="line"/>
      <point x="220" y="434" type="line"/>
      <point x="234" y="513" type="line"/>
      <point x="213" y="513" type="line"/>
      <point x="203" y="480"/>
      <point x="193" y="473"/>
      <point x="170" y="473" type="curve" smooth="yes"/>
      <point x="94" y="473" type="line"/>
    </contour>
  </outline>
</glyph>
<glyph name="threesuperior" format="1">
  <advance width="260"/>
  <unicode hex="00B3"/>
  <outline>
    <contour>
      <point x="170" y="515" type="curve" smooth="yes"/>
      <point x="170" y="552"/>
      <point x="154" y="574"/>
      <point x="126" y="574" type="curve"/>
      <point x="118" y="570"/>
      <point x="107" y="567"/>
      <point x="100" y="567" type="curve" smooth="yes"/>
      <point x="89" y="567"/>
      <point x="81" y="575"/>
      <point x="81" y="584" type="curve" smooth="yes"/>
      <point x="81" y="594"/>
      <point x="89" y="599"/>
      <point x="99" y="599" type="curve" smooth="yes"/>
      <point x="106" y="599"/>
      <point x="115" y="597"/>
      <point x="123" y="595" type="curve"/>
      <point x="147" y="595"/>
      <point x="164" y="619"/>
      <point x="164" y="655" type="curve" smooth="yes"/>
      <point x="164" y="685"/>
      <point x="151" y="699"/>
      <point x="124" y="699" type="curve" smooth="yes"/>
      <point x="101" y="699"/>
      <point x="87" y="688"/>
      <point x="87" y="671" type="curve" smooth="yes"/>
      <point x="87" y="657"/>
      <point x="97" y="648"/>
      <point x="112" y="648" type="curve"/>
      <point x="110" y="638"/>
      <point x="95" y="629"/>
      <point x="80" y="629" type="curve" smooth="yes"/>
      <point x="58" y="629"/>
      <point x="40" y="648"/>
      <point x="40" y="671" type="curve" smooth="yes"/>
      <point x="40" y="703"/>
      <point x="73" y="724"/>
      <point x="124" y="724" type="curve" smooth="yes"/>
      <point x="183" y="724"/>
      <point x="220" y="697"/>
      <point x="220" y="658" type="curve" smooth="yes"/>
      <point x="220" y="625"/>
      <point x="195" y="597"/>
      <point x="161" y="590" type="curve"/>
      <point x="161" y="586" type="line"/>
      <point x="201" y="576"/>
      <point x="230" y="547"/>
      <point x="230" y="511" type="curve" smooth="yes"/>
      <point x="230" y="464"/>
      <point x="184" y="431"/>
      <point x="123" y="431" type="curve" smooth="yes"/>
      <point x="69" y="431"/>
      <point x="29" y="458"/>
      <point x="29" y="497" type="curve" smooth="yes"/>
      <point x="29" y="523"/>
      <point x="49" y="544"/>
      <point x="74" y="544" type="curve" smooth="yes"/>
      <point x="91" y="544"/>
      <point x="106" y="535"/>
      <point x="109" y="522" type="curve"/>
      <point x="93" y="522"/>
      <point x="80" y="509"/>
      <point x="80" y="492" type="curve" smooth="yes"/>
      <point x="80" y="471"/>
      <point x="97" y="457"/>
      <point x="121" y="457" type="curve" smooth="yes"/>
      <point x="153" y="457"/>
      <point x="170" y="477"/>
    </contour>
  </outline>
</glyph>
<glyph name="mu" format="1">
  <advance width="679"/>
  <unicode hex="00B5"/>
  <outline>
    <contour>
      <point x="189" y="80" type="line"/>
      <point x="218" y="20"/>
      <point x="262" y="-9"/>
      <point x="317" y="-9" type="curve" smooth="yes"/>
      <point x="378" y="-9"/>
      <point x="427" y="22"/>
      <point x="461" y="88" type="curve"/>
      <point x="464" y="88" type="line"/>
      <point x="475" y="-10" type="line"/>
      <point x="642" y="1" type="line"/>
      <point x="642" y="35" type="line"/>
      <point x="583" y="35"/>
      <point x="571" y="41"/>
      <point x="565" y="72" type="curve" smooth="yes"/>
      <point x="561" y="94"/>
      <point x="559" y="137"/>
      <point x="559" y="207" type="curve" smooth="yes"/>
      <point x="559" y="492" type="line"/>
      <point x="372" y="492" type="line"/>
      <point x="372" y="457" type="line"/>
      <point x="442" y="454"/>
      <point x="451" y="441"/>
      <point x="451" y="341" type="curve" smooth="yes"/>
      <point x="451" y="252" type="line"/>
      <point x="451" y="202"/>
      <point x="445" y="167"/>
      <point x="433" y="138" type="curve" smooth="yes"/>
      <point x="404" y="72"/>
      <point x="370" y="45"/>
      <point x="321" y="45" type="curve" smooth="yes"/>
      <point x="252" y="45"/>
      <point x="223" y="103"/>
      <point x="223" y="238" type="curve" smooth="yes"/>
      <point x="223" y="492" type="line"/>
      <point x="36" y="492" type="line"/>
      <point x="36" y="457" type="line"/>
      <point x="107" y="454"/>
      <point x="115" y="441"/>
      <point x="115" y="341" type="curve" smooth="yes"/>
      <point x="115" y="-175" type="line"/>
      <point x="115" y="-213"/>
      <point x="141" y="-241"/>
      <point x="176" y="-241" type="curve" smooth="yes"/>
      <point x="211" y="-241"/>
      <point x="233" y="-216"/>
      <point x="233" y="-176" type="curve" smooth="yes"/>
      <point x="233" y="-137"/>
      <point x="207" y="-8"/>
      <point x="186" y="79" type="curve"/>
    </contour>
    <contour>
      <point x="326" y="604" type="move" name="top"/>
    </contour>
    <contour>
      <point x="305" y="0" type="move" name="bottom"/>
    </contour>
  </outline>
</glyph>
<glyph name="paragraph" format="1">
  <advance width="614"/>
  <unicode hex="00B6"/>
  <outline>
    <contour>
      <point x="473" y="529" type="line"/>
      <point x="473" y="596"/>
      <point x="476" y="624"/>
      <point x="483" y="644" type="curve" smooth="yes"/>
      <point x="493" y="669"/>
      <point x="512" y="677"/>
      <point x="570" y="677" type="curve"/>
      <point x="570" y="714" type="line"/>
      <point x="291" y="714" type="line"/>
      <point x="123" y="714"/>
      <point x="32" y="646"/>
      <point x="32" y="521" type="curve" smooth="yes"/>
      <point x="32" y="405"/>
      <point x="102" y="336"/>
      <point x="220" y="336" type="curve" smooth="yes"/>
      <point x="234" y="336"/>
      <point x="242" y="337"/>
      <point x="252" y="337" type="curve"/>
      <point x="252" y="61" type="line"/>
      <point x="252" y="0"/>
      <point x="248" y="-64"/>
      <point x="243" y="-80" type="curve" smooth="yes"/>
      <point x="234" y="-106"/>
      <point x="205" y="-116"/>
      <point x="139" y="-116" type="curve"/>
      <point x="139" y="-153" type="line"/>
      <point x="334" y="-153" type="line"/>
      <point x="334" y="669" type="line"/>
      <point x="391" y="669" type="line"/>
      <point x="391" y="-153" type="line"/>
      <point x="570" y="-153" type="line"/>
      <point x="570" y="-116" type="line"/>
      <point x="516" y="-116"/>
      <point x="493" y="-107"/>
      <point x="485" y="-82" type="curve" smooth="yes"/>
      <point x="477" y="-63"/>
      <point x="473" y="-9"/>
      <point x="473" y="61" type="curve" smooth="yes"/>
    </contour>
  </outline>
</glyph>
<glyph name="cedilla" format="1">
  <advance width="220"/>
  <unicode hex="00B8"/>
  <outline>
    <contour>
      <point x="144" y="11" type="line"/>
      <point x="93" y="11" type="line"/>
      <point x="44" y="-103" type="line"/>
      <point x="46" y="-106" type="line"/>
      <point x="55" y="-106"/>
      <point x="71" y="-105"/>
      <point x="80" y="-105" type="curve" smooth="yes"/>
      <point x="132" y="-105"/>
      <point x="160" y="-124"/>
      <point x="160" y="-156" type="curve" smooth="yes"/>
      <point x="160" y="-184"/>
      <point x="142" y="-201"/>
      <point x="113" y="-201" type="curve"/>
      <point x="88" y="-201"/>
      <point x="78" y="-190"/>
      <point x="66" y="-163" type="curve" smooth="yes"/>
      <point x="55" y="-138"/>
      <point x="47" y="-131"/>
      <point x="32" y="-131" type="curve" smooth="yes"/>
      <point x="13" y="-131"/>
      <point x="1" y="-144"/>
      <point x="1" y="-166" type="curve" smooth="yes"/>
      <point x="1" y="-210"/>
      <point x="48" y="-241"/>
      <point x="115" y="-241" type="curve" smooth="yes"/>
      <point x="189" y="-241"/>
      <point x="239" y="-203"/>
      <point x="239" y="-148" type="curve"/>
      <point x="239" y="-94"/>
      <point x="192" y="-62"/>
      <point x="114" y="-62" type="curve"/>
    </contour>
    <contour>
      <point x="116" y="0" type="move" name="_bottom"/>
    </contour>
  </outline>
</glyph>
<glyph name="ordmasculine" format="1">
  <advance width="355"/>
  <unicode hex="00BA"/>
  <outline>
    <contour>
      <point x="176" y="724" type="curve" smooth="yes"/>
      <point x="105" y="724"/>
      <point x="44" y="671"/>
      <point x="44" y="598" type="curve" smooth="yes"/>
      <point x="44" y="524"/>
      <point x="105" y="470"/>
      <point x="176" y="470" type="curve" smooth="yes"/>
      <point x="248" y="470"/>
      <point x="311" y="524"/>
      <point x="311" y="598" type="curve" smooth="yes"/>
      <point x="311" y="671"/>
      <point x="248" y="724"/>
    </contour>
    <contour>
      <point x="176" y="695" type="curve" smooth="yes"/>
      <point x="215" y="695"/>
      <point x="241" y="655"/>
      <point x="241" y="598" type="curve" smooth="yes"/>
      <point x="241" y="539"/>
      <point x="215" y="500"/>
      <point x="176" y="500" type="curve" smooth="yes"/>
      <point x="139" y="500"/>
      <point x="113" y="539"/>
      <point x="113" y="598" type="curve" smooth="yes"/>
      <point x="113" y="655"/>
      <point x="140" y="695"/>
    </contour>
  </outline>
</glyph>
<glyph name="guillemotright" format="1">
  <advance width="480"/>
  <unicode hex="00BB"/>
  <outline>
    <contour>
      <point x="437" y="243" type="line"/>
      <point x="268" y="402" type="line"/>
      <point x="244" y="381" type="line"/>
      <point x="333" y="243" type="line"/>
      <point x="246" y="105" type="line"/>
      <point x="270" y="85" type="line"/>
    </contour>
    <contour>
      <point x="257" y="243" type="line"/>
      <point x="89" y="402" type="line"/>
      <point x="65" y="381" type="line"/>
      <point x="154" y="243" type="line"/>
      <point x="66" y="105" type="line"/>
      <point x="91" y="85" type="line"/>
    </contour>
  </outline>
</glyph>
<glyph name="onequarter" format="1">
  <advance width="639"/>
  <unicode hex="00BC"/>
  <outline>
    <contour>
      <point x="606" y="714" type="line"/>
      <point x="552" y="714" type="line"/>
      <point x="27" y="0" type="line"/>
      <point x="90" y="0" type="line"/>
    </contour>
    <component base="onesuperior" xOffset="72"/>
    <component base="fourinferior" xOffset="319"/>
  </outline>
</glyph>
<glyph name="onehalf" format="1">
  <advance width="644"/>
  <unicode hex="00BD"/>
  <outline>
    <contour>
      <point x="606" y="714" type="line"/>
      <point x="552" y="714" type="line"/>
      <point x="27" y="0" type="line"/>
      <point x="90" y="0" type="line"/>
    </contour>
    <component base="onesuperior" xOffset="72"/>
    <component base="twoinferior" xOffset="323"/>
  </outline>
</glyph>
<glyph name="multiply" format="1">
  <advance width="484"/>
  <unicode hex="00D7"/>
  <outline>
    <contour>
      <point x="94" y="125" type="line"/>
      <point x="242" y="272" type="line"/>
      <point x="388" y="126" type="line"/>
      <point x="426" y="163" type="line"/>
      <point x="279" y="310" type="line"/>
      <point x="427" y="458" type="line"/>
      <point x="389" y="496" type="line"/>
      <point x="241" y="348" type="line"/>
      <point x="95" y="494" type="line"/>
      <point x="57" y="456" type="line"/>
      <point x="204" y="310" type="line"/>
      <point x="56" y="163" type="line"/>
    </contour>
  </outline>
</glyph>
<glyph name="germandbls" format="1">
  <advance width="655"/>
  <unicode hex="00DF"/>
  <outline>
    <contour>
      <point x="334" y="719" type="curve"/>
      <point x="399" y="719"/>
      <point x="439" y="676"/>
      <point x="439" y="587" type="curve" smooth="yes"/>
      <point x="439" y="496"/>
      <point x="391" y="454"/>
      <point x="313" y="454" type="curve"/>
      <point x="313" y="402" type="line"/>
      <point x="425" y="402"/>
      <point x="495" y="324"/>
      <point x="495" y="198" type="curve"/>
      <point x="495" y="100"/>
      <point x="460" y="38"/>
      <point x="412" y="38" type="curve" smooth="yes"/>
      <point x="389" y="38"/>
      <point x="389" y="57"/>
      <point x="382" y="77" type="curve" smooth="yes"/>
      <point x="373" y="98"/>
      <point x="362" y="116"/>
      <point x="338" y="116" type="curve" smooth="yes"/>
      <point x="312" y="116"/>
      <point x="293" y="98"/>
      <point x="293" y="70" type="curve" smooth="yes"/>
      <point x="293" y="25"/>
      <point x="339" y="-9"/>
      <point x="410" y="-9" type="curve" smooth="yes"/>
      <point x="526" y="-9"/>
      <point x="615" y="74"/>
      <point x="615" y="203" type="curve"/>
      <point x="615" y="340"/>
      <point x="519" y="413"/>
      <point x="414" y="429" type="curve"/>
      <point x="414" y="433" type="line"/>
      <point x="499" y="454"/>
      <point x="557" y="510"/>
      <point x="557" y="596" type="curve" smooth="yes"/>
      <point x="557" y="706"/>
      <point x="464" y="770"/>
      <point x="341" y="770" type="curve"/>
      <point x="192" y="770"/>
      <point x="101" y="688"/>
      <point x="101" y="537" type="curve"/>
      <point x="101" y="144" type="line"/>
      <point x="101" y="51"/>
      <point x="91" y="38"/>
      <point x="19" y="35" type="curve"/>
      <point x="19" y="0" type="line"/>
      <point x="272" y="0" type="line"/>
      <point x="272" y="35" type="line"/>
      <point x="222" y="37"/>
      <point x="211" y="59"/>
      <point x="211" y="152" type="curve"/>
      <point x="211" y="556" type="line"/>
      <point x="211" y="671"/>
      <point x="258" y="719"/>
    </contour>
  </outline>
</glyph>
<glyph name="thorn" format="1">
  <advance width="604"/>
  <unicode hex="00FE"/>
  <outline>
    <contour>
      <point x="191" y="439" type="curve"/>
      <point x="191" y="770" type="line"/>
      <point x="-7" y="735" type="line"/>
      <point x="-7" y="703" type="line"/>
      <point x="51" y="703"/>
      <point x="68" y="696"/>
      <point x="75" y="667" type="curve" smooth="yes"/>
      <point x="79" y="650"/>
      <point x="81" y="603"/>
      <point x="81" y="534" type="curve" smooth="yes"/>
      <point x="81" y="-90" type="line"/>
      <point x="81" y="-177"/>
      <point x="67" y="-193"/>
      <point x="-4" y="-197" type="curve"/>
      <point x="-4" y="-232" type="line"/>
      <point x="273" y="-232" type="line"/>
      <point x="273" y="-197" type="line"/>
      <point x="201" y="-194"/>
      <point x="191" y="-179"/>
      <point x="191" y="-84" type="curve" smooth="yes"/>
      <point x="191" y="55" type="line"/>
      <point x="195" y="55" type="line"/>
      <point x="227" y="10"/>
      <point x="275" y="-9"/>
      <point x="340" y="-9" type="curve"/>
      <point x="472" y="-9"/>
      <point x="564" y="93"/>
      <point x="564" y="246" type="curve" smooth="yes"/>
      <point x="564" y="394"/>
      <point x="471" y="501"/>
      <point x="334" y="501" type="curve"/>
      <point x="281" y="501"/>
      <point x="227" y="479"/>
    </contour>
    <contour>
      <point x="319" y="452" type="curve"/>
      <point x="403" y="452"/>
      <point x="444" y="377"/>
      <point x="444" y="242" type="curve" smooth="yes"/>
      <point x="444" y="114"/>
      <point x="405" y="43"/>
      <point x="320" y="43" type="curve"/>
      <point x="256" y="43"/>
      <point x="194" y="88"/>
      <point x="194" y="215" type="curve" smooth="yes"/>
      <point x="194" y="284" type="line"/>
      <point x="194" y="402"/>
      <point x="250" y="452"/>
    </contour>
  </outline>
</glyph>
<glyph name="dcroat" format="1">
  <advance width="617"/>
  <unicode hex="0111"/>
  <outline>
    <contour>
      <point x="583" y="556" type="line"/>
      <point x="583" y="604" type="line"/>
      <point x="309" y="604" type="line"/>
      <point x="309" y="556" type="line"/>
    </contour>
    <component base="d"/>
  </outline>
</glyph>
<glyph name="hbar" format="1">
  <advance width="646"/>
  <unicode hex="0127"/>
  <outline>
    <contour>
      <point x="297" y="556" type="line"/>
      <point x="297" y="604" type="line"/>
      <point x="20" y="604" type="line"/>
      <point x="20" y="556" type="line"/>
    </contour>
    <component base="h"/>
  </outline>
</glyph>
<glyph name="dotlessi" format="1">
  <advance width="327"/>
  <unicode hex="0131"/>
  <outline>
    <contour>
      <point x="226" y="501" type="line"/>
      <point x="27" y="465" type="line"/>
      <point x="27" y="433" type="line"/>
      <point x="86" y="433"/>
      <point x="103" y="426"/>
      <point x="109" y="396" type="curve" smooth="yes"/>
      <point x="113" y="379"/>
      <point x="115" y="332"/>
      <point x="115" y="260" type="curve" smooth="yes"/>
      <point x="115" y="143" type="line"/>
      <point x="115" y="56"/>
      <point x="102" y="38"/>
      <point x="29" y="35" type="curve"/>
      <point x="29" y="0" type="line"/>
      <point x="309" y="0" type="line"/>
      <point x="309" y="35" type="line"/>
      <point x="237" y="38"/>
      <point x="226" y="53"/>
      <point x="226" y="150" type="curve" smooth="yes"/>
    </contour>
    <contour>
      <point x="170" y="604" type="move" name="top"/>
    </contour>
  </outline>
</glyph>
<glyph name="lslash" format="1">
  <advance width="320"/>
  <unicode hex="0142"/>
  <outline>
    <contour>
      <point x="280" y="416" type="line"/>
      <point x="280" y="477" type="line"/>
      <point x="24" y="327" type="line"/>
      <point x="24" y="267" type="line"/>
    </contour>
    <component base="l" xOffset="1"/>
  </outline>
</glyph>
<glyph name="Eng" format="1">
  <advance width="846"/>
  <unicode hex="014A"/>
  <outline>
    <contour>
      <point x="715" y="-9" type="line"/>
      <point x="715" y="-159"/>
      <point x="642" y="-241"/>
      <point x="514" y="-241" type="curve" smooth="yes"/>
      <point x="427" y="-241"/>
      <point x="365" y="-203"/>
      <point x="365" y="-147" type="curve" smooth="yes"/>
      <point x="365" y="-115"/>
      <point x="385" y="-97"/>
      <point x="415" y="-97" type="curve" smooth="yes"/>
      <point x="439" y="-97"/>
      <point x="453" y="-107"/>
      <point x="473" y="-142" type="curve" smooth="yes"/>
      <point x="495" y="-180"/>
      <point x="508" y="-190"/>
      <point x="535" y="-190" type="curve" smooth="yes"/>
      <point x="604" y="-190"/>
      <point x="651" y="-134"/>
      <point x="651" y="-53" type="curve" smooth="yes"/>
      <point x="651" y="-34" type="line"/>
      <point x="206" y="584" type="line"/>
      <point x="203" y="584" type="line"/>
      <point x="203" y="176" type="line"/>
      <point x="203" y="54"/>
      <point x="216" y="39"/>
      <point x="296" y="36" type="curve"/>
      <point x="296" y="0" type="line"/>
      <point x="35" y="0" type="line"/>
      <point x="35" y="36" type="line"/>
      <point x="124" y="39"/>
      <point x="140" y="55"/>
      <point x="140" y="170" type="curve" smooth="yes"/>
      <point x="140" y="545" type="line"/>
      <point x="140" y="649"/>
      <point x="126" y="675"/>
      <point x="45" y="678" type="curve"/>
      <point x="45" y="714" type="line"/>
      <point x="267" y="714" type="line"/>
      <point x="647" y="178" type="line"/>
      <point x="651" y="178" type="line"/>
      <point x="651" y="538" type="line"/>
      <point x="651" y="660"/>
      <point x="638" y="676"/>
      <point x="557" y="678" type="curve"/>
      <point x="557" y="714" type="line"/>
      <point x="819" y="714" type="line"/>
      <point x="819" y="678" type="line"/>
      <point x="730" y="676"/>
      <point x="715" y="660"/>
      <point x="715" y="545" type="curve" smooth="yes"/>
    </contour>
  </outline>
</glyph>
<glyph name="eng" format="1">
  <advance width="633"/>
  <unicode hex="014B"/>
  <outline>
    <contour>
      <point x="563" y="289" type="line"/>
      <point x="563" y="440"/>
      <point x="490" y="501"/>
      <point x="379" y="501" type="curve"/>
      <point x="310" y="501"/>
      <point x="251" y="472"/>
      <point x="209" y="414" type="curve"/>
      <point x="206" y="414" type="line"/>
      <point x="194" y="501" type="line"/>
      <point x="28" y="465" type="line"/>
      <point x="28" y="435" type="line"/>
      <point x="83" y="435"/>
      <point x="97" y="430"/>
      <point x="105" y="397" type="curve"/>
      <point x="108" y="381"/>
      <point x="110" y="334"/>
      <point x="111" y="262" type="curve"/>
      <point x="111" y="142" type="line"/>
      <point x="110" y="49"/>
      <point x="101" y="39"/>
      <point x="31" y="34" type="curve"/>
      <point x="31" y="0" type="line"/>
      <point x="296" y="0" type="line"/>
      <point x="296" y="35" type="line"/>
      <point x="227" y="39"/>
      <point x="221" y="48"/>
      <point x="222" y="149" type="curve"/>
      <point x="222" y="277" type="line"/>
      <point x="221" y="389"/>
      <point x="268" y="446"/>
      <point x="345" y="446" type="curve"/>
      <point x="420" y="446"/>
      <point x="453" y="400"/>
      <point x="453" y="271" type="curve"/>
      <point x="453" y="-67" type="line"/>
      <point x="453" y="-163"/>
      <point x="435" y="-197"/>
      <point x="382" y="-197" type="curve" smooth="yes"/>
      <point x="354" y="-197"/>
      <point x="343" y="-185"/>
      <point x="329" y="-158" type="curve" smooth="yes"/>
      <point x="315" y="-129"/>
      <point x="308" y="-102"/>
      <point x="272" y="-102" type="curve"/>
      <point x="241" y="-102"/>
      <point x="221" y="-123"/>
      <point x="221" y="-150" type="curve"/>
      <point x="221" y="-206"/>
      <point x="276" y="-241"/>
      <point x="367" y="-241" type="curve" smooth="yes"/>
      <point x="502" y="-241"/>
      <point x="563" y="-159"/>
      <point x="563" y="3" type="curve"/>
    </contour>
  </outline>
</glyph>
<glyph name="Tbar" format="1">
  <advance width="707"/>
  <unicode hex="0166"/>
  <outline>
    <contour>
      <point x="602" y="383" type="line"/>
      <point x="602" y="433" type="line"/>
      <point x="102" y="433" type="line"/>
      <point x="102" y="383" type="line"/>
    </contour>
    <component base="T" xOffset="-17"/>
  </outline>
</glyph>
<glyph name="tbar" format="1">
  <advance width="365"/>
  <unicode hex="0167"/>
  <outline>
    <contour>
      <point x="314" y="305" type="line"/>
      <point x="314" y="354" type="line"/>
      <point x="33" y="354" type="line"/>
      <point x="33" y="305" type="line"/>
    </contour>
    <component base="t" xOffset="3"/>
  </outline>
</glyph>
<glyph name="Schwa" format="1">
  <advance width="768"/>
  <unicode hex="018F"/>
  <outline>
    <contour>
      <point x="331" y="-9" type="curve" smooth="yes"/>
      <point x="557" y="-9"/>
      <point x="719" y="147"/>
      <point x="719" y="366" type="curve" smooth="yes"/>
      <point x="719" y="579"/>
      <point x="576" y="724"/>
      <point x="365" y="724" type="curve" smooth="yes"/>
      <point x="245" y="724"/>
      <point x="134" y="684"/>
      <point x="55" y="591" type="curve"/>
      <point x="96" y="558" type="line"/>
      <point x="169" y="641"/>
      <point x="241" y="667"/>
      <point x="337" y="667" type="curve"/>
      <point x="478" y="667"/>
      <point x="581" y="543"/>
      <point x="581" y="351" type="curve" smooth="yes"/>
      <point x="581" y="329"/>
      <point x="579" y="309"/>
      <point x="575" y="292" type="curve"/>
      <point x="88" y="292" type="line"/>
      <point x="51" y="292"/>
      <point x="46" y="289"/>
      <point x="46" y="265" type="curve" smooth="yes"/>
      <point x="46" y="91"/>
      <point x="152" y="-9"/>
    </contour>
    <contour>
      <point x="353" y="49" type="curve" smooth="yes"/>
      <point x="246" y="49"/>
      <point x="183" y="105"/>
      <point x="183" y="189" type="curve" smooth="yes"/>
      <point x="183" y="222"/>
      <point x="190" y="227"/>
      <point x="265" y="227" type="curve"/>
      <point x="563" y="227" type="line"/>
      <point x="532" y="119"/>
      <point x="463" y="49"/>
    </contour>
  </outline>
</glyph>
<glyph name="florin" format="1">
  <advance width="680"/>
  <unicode hex="0192"/>
  <outline>
    <contour>
      <point x="72" y="-192" type="curve" smooth="yes"/>
      <point x="46" y="-192"/>
      <point x="31" y="-172"/>
      <point x="7" y="-139" type="curve" smooth="yes"/>
      <point x="-7" y="-119"/>
      <point x="-26" y="-105"/>
      <point x="-50" y="-105" type="curve" smooth="yes"/>
      <point x="-83" y="-105"/>
      <point x="-100" y="-127"/>
      <point x="-100" y="-155" type="curve" smooth="yes"/>
      <point x="-100" y="-205"/>
      <point x="-42" y="-241"/>
      <point x="47" y="-241" type="curve" smooth="yes"/>
      <point x="201" y="-241"/>
      <point x="271" y="-127"/>
      <point x="328" y="210" type="curve" smooth="yes"/>
      <point x="358" y="391" type="line"/>
      <point x="474" y="391" type="line"/>
      <point x="486" y="439" type="line"/>
      <point x="363" y="439" type="line"/>
      <point x="372" y="485" type="line"/>
      <point x="396" y="615"/>
      <point x="426" y="675"/>
      <point x="476" y="675" type="curve" smooth="yes"/>
      <point x="500" y="675"/>
      <point x="520" y="660"/>
      <point x="546" y="637" type="curve" smooth="yes"/>
      <point x="570" y="614"/>
      <point x="588" y="599"/>
      <point x="613" y="599" type="curve" smooth="yes"/>
      <point x="643" y="599"/>
      <point x="661" y="621"/>
      <point x="661" y="646" type="curve" smooth="yes"/>
      <point x="661" y="691"/>
      <point x="600" y="724"/>
      <point x="513" y="724" type="curve" smooth="yes"/>
      <point x="376" y="724"/>
      <point x="282" y="635"/>
      <point x="253" y="487" type="curve" smooth="yes"/>
      <point x="244" y="439" type="line"/>
      <point x="149" y="439" type="line"/>
      <point x="136" y="391" type="line"/>
      <point x="235" y="391" type="line"/>
      <point x="186" y="76" type="line"/>
      <point x="156" y="-119"/>
      <point x="125" y="-192"/>
    </contour>
  </outline>
</glyph>
<glyph name="Aringacute" format="1">
  <advance width="742"/>
  <unicode hex="01FA"/>
  <outline>
    <contour>
      <point x="489" y="159" type="line"/>
      <point x="504" y="124"/>
      <point x="511" y="98"/>
      <point x="511" y="80" type="curve" smooth="yes"/>
      <point x="511" y="48"/>
      <point x="487" y="38"/>
      <point x="426" y="37" type="curve"/>
      <point x="426" y="0" type="line"/>
      <point x="759" y="0" type="line"/>
      <point x="759" y="37" type="line"/>
      <point x="692" y="41"/>
      <point x="673" y="60"/>
      <point x="628" y="155" type="curve" smooth="yes"/>
      <point x="390" y="668" type="line"/>
      <point x="338" y="668" type="line"/>
      <point x="95" y="111" type="line"/>
      <point x="73" y="59"/>
      <point x="47" y="39"/>
      <point x="-9" y="36" type="curve"/>
      <point x="-9" y="0" type="line"/>
      <point x="230" y="0" type="line"/>
      <point x="230" y="36" type="line"/>
      <point x="177" y="36"/>
      <point x="152" y="46"/>
      <point x="152" y="81" type="curve" smooth="yes"/>
      <point x="152" y="100"/>
      <point x="157" y="118"/>
      <point x="206" y="239" type="curve"/>
      <point x="455" y="239" type="line"/>
    </contour>
    <contour>
      <point x="332" y="531" type="line"/>
      <point x="433" y="290" type="line"/>
      <point x="229" y="290" type="line"/>
    </contour>
    <contour>
      <point x="288" y="814" type="curve" smooth="yes"/>
      <point x="288" y="807"/>
      <point x="289" y="801"/>
      <point x="290" y="795" type="curve"/>
      <point x="234" y="743" type="line"/>
      <point x="285" y="743" type="line"/>
      <point x="316" y="757" type="line"/>
      <point x="329" y="747"/>
      <point x="345" y="741"/>
      <point x="364" y="741" type="curve" smooth="yes"/>
      <point x="408" y="741"/>
      <point x="440" y="773"/>
      <point x="440" y="814" type="curve" smooth="yes"/>
      <point x="440" y="819"/>
      <point x="439" y="824"/>
      <point x="438" y="829" type="curve"/>
      <point x="463" y="843"/>
      <point x="479" y="859"/>
      <point x="479" y="876" type="curve" smooth="yes"/>
      <point x="479" y="890"/>
      <point x="468" y="900"/>
      <point x="451" y="900" type="curve" smooth="yes"/>
      <point x="436" y="900"/>
      <point x="423" y="894"/>
      <point x="407" y="879" type="curve"/>
      <point x="395" y="886"/>
      <point x="380" y="890"/>
      <point x="364" y="890" type="curve" smooth="yes"/>
      <point x="321" y="890"/>
      <point x="288" y="859"/>
    </contour>
    <contour>
      <point x="324" y="814" type="curve" smooth="yes"/>
      <point x="324" y="838"/>
      <point x="340" y="854"/>
      <point x="364" y="854" type="curve" smooth="yes"/>
      <point x="388" y="854"/>
      <point x="404" y="838"/>
      <point x="404" y="814" type="curve" smooth="yes"/>
      <point x="404" y="792"/>
      <point x="388" y="776"/>
      <point x="364" y="776" type="curve" smooth="yes"/>
      <point x="340" y="776"/>
      <point x="324" y="792"/>
    </contour>
  </outline>
</glyph>
<glyph name="aringacute" format="1">
  <advance width="523"/>
  <unicode hex="01FB"/>
  <outline>
    <contour>
      <point x="158" y="684" type="curve" smooth="yes"/>
      <point x="158" y="678"/>
      <point x="158" y="671"/>
      <point x="160" y="665" type="curve"/>
      <point x="101" y="613" type="line"/>
      <point x="156" y="613" type="line"/>
      <point x="185" y="627" type="line"/>
      <point x="198" y="617"/>
      <point x="214" y="611"/>
      <point x="233" y="611" type="curve" smooth="yes"/>
      <point x="277" y="611"/>
      <point x="309" y="644"/>
      <point x="309" y="684" type="curve" smooth="yes"/>
      <point x="309" y="689"/>
      <point x="308" y="694"/>
      <point x="307" y="699" type="curve"/>
      <point x="335" y="713"/>
      <point x="352" y="728"/>
      <point x="352" y="746" type="curve" smooth="yes"/>
      <point x="352" y="763"/>
      <point x="339" y="774"/>
      <point x="320" y="774" type="curve" smooth="yes"/>
      <point x="305" y="774"/>
      <point x="291" y="768"/>
      <point x="275" y="749" type="curve"/>
      <point x="263" y="756"/>
      <point x="248" y="760"/>
      <point x="233" y="760" type="curve" smooth="yes"/>
      <point x="190" y="760"/>
      <point x="158" y="729"/>
    </contour>
    <contour>
      <point x="196" y="684" type="curve" smooth="yes"/>
      <point x="196" y="706"/>
      <point x="212" y="720"/>
      <point x="233" y="720" type="curve" smooth="yes"/>
      <point x="255" y="720"/>
      <point x="269" y="706"/>
      <point x="269" y="684" type="curve" smooth="yes"/>
      <point x="269" y="664"/>
      <point x="255" y="650"/>
      <point x="233" y="650" type="curve" smooth="yes"/>
      <point x="212" y="650"/>
      <point x="196" y="664"/>
    </contour>
    <component base="a"/>
  </outline>
</glyph>
<glyph name="oslashacute" format="1">
  <advance width="607"/>
  <unicode hex="01FF"/>
  <outline>
    <contour>
      <point x="589" y="549" type="line"/>
      <point x="519" y="549" type="line"/>
      <point x="30" y="-57" type="line"/>
      <point x="98" y="-57" type="line"/>
    </contour>
    <contour>
      <point x="309" y="501" type="curve" smooth="yes"/>
      <point x="162" y="501"/>
      <point x="52" y="396"/>
      <point x="52" y="250" type="curve" smooth="yes"/>
      <point x="52" y="98"/>
      <point x="162" y="-9"/>
      <point x="309" y="-9" type="curve" smooth="yes"/>
      <point x="457" y="-9"/>
      <point x="570" y="99"/>
      <point x="570" y="250" type="curve" smooth="yes"/>
      <point x="570" y="395"/>
      <point x="457" y="501"/>
    </contour>
    <contour>
      <point x="309" y="452" type="curve" smooth="yes"/>
      <point x="395" y="452"/>
      <point x="449" y="369"/>
      <point x="449" y="249" type="curve" smooth="yes"/>
      <point x="449" y="124"/>
      <point x="396" y="43"/>
      <point x="309" y="43" type="curve" smooth="yes"/>
      <point x="224" y="43"/>
      <point x="173" y="123"/>
      <point x="173" y="249" type="curve" smooth="yes"/>
      <point x="173" y="370"/>
      <point x="225" y="452"/>
    </contour>
    <component base="acute" xOffset="239"/>
  </outline>
</glyph>
<glyph name="caron" format="1">
  <advance width="349"/>
  <unicode hex="02C7"/>
  <outline>
    <contour>
      <point x="219" y="604" type="line"/>
      <point x="330" y="732" type="line"/>
      <point x="285" y="732" type="line"/>
      <point x="174" y="669" type="line"/>
      <point x="64" y="732" type="line"/>
      <point x="19" y="732" type="line"/>
      <point x="130" y="604" type="line"/>
    </contour>
    <contour>
      <point x="174" y="604" type="move" name="_top"/>
    </contour>
  </outline>
</glyph>
<glyph name="dotaccent" format="1">
  <advance width="165"/>
  <unicode hex="02D9"/>
  <outline>
    <contour>
      <point x="18" y="693" type="curve" smooth="yes"/>
      <point x="18" y="657"/>
      <point x="47" y="629"/>
      <point x="82" y="629" type="curve" smooth="yes"/>
      <point x="119" y="629"/>
      <point x="147" y="657"/>
      <point x="147" y="693" type="curve" smooth="yes"/>
      <point x="147" y="730"/>
      <point x="119" y="758"/>
      <point x="82" y="758" type="curve" smooth="yes"/>
      <point x="47" y="758"/>
      <point x="18" y="730"/>
    </contour>
    <contour>
      <point x="82" y="604" type="move" name="_top"/>
    </contour>
  </outline>
</glyph>
<glyph name="ogonek" format="1">
  <advance width="251"/>
  <unicode hex="02DB"/>
  <outline>
    <contour>
      <point x="211" y="-110" type="line"/>
      <point x="183" y="-143"/>
      <point x="146" y="-160"/>
      <point x="121" y="-160" type="curve" smooth="yes"/>
      <point x="93" y="-160"/>
      <point x="74" y="-144"/>
      <point x="74" y="-116" type="curve" smooth="yes"/>
      <point x="74" y="-78"/>
      <point x="127" y="-28"/>
      <point x="194" y="3" type="curve"/>
      <point x="194" y="8" type="line"/>
      <point x="141" y="8" type="line"/>
      <point x="49" y="-27"/>
      <point x="-4" y="-81"/>
      <point x="-4" y="-139" type="curve" smooth="yes"/>
      <point x="-4" y="-191"/>
      <point x="34" y="-219"/>
      <point x="91" y="-219" type="curve" smooth="yes"/>
      <point x="148" y="-219"/>
      <point x="198" y="-195"/>
      <point x="241" y="-141" type="curve"/>
    </contour>
    <contour>
      <point x="157" y="0" type="move" name="_bottom"/>
    </contour>
  </outline>
</glyph>
<glyph name="commaaccent" format="1">
  <advance width="153"/>
  <unicode hex="0326"/>
  <outline>
    <contour>
      <point x="47" y="-241" type="line"/>
      <point x="111" y="-206"/>
      <point x="135" y="-170"/>
      <point x="135" y="-129" type="curve" smooth="yes"/>
      <point x="135" y="-82"/>
      <point x="113" y="-56"/>
      <point x="75" y="-56" type="curve" smooth="yes"/>
      <point x="39" y="-56"/>
      <point x="14" y="-79"/>
      <point x="14" y="-107" type="curve" smooth="yes"/>
      <point x="14" y="-135"/>
      <point x="33" y="-153"/>
      <point x="57" y="-153" type="curve" smooth="yes"/>
      <point x="67" y="-153"/>
      <point x="76" y="-150"/>
      <point x="81" y="-145" type="curve"/>
      <point x="81" y="-170"/>
      <point x="63" y="-193"/>
      <point x="24" y="-215" type="curve"/>
    </contour>
    <contour>
      <point x="75" y="-9" type="move" name="_bottom"/>
    </contour>
  </outline>
</glyph>
<glyph name="uni03BC" format="1">
  <advance width="676"/>
  <unicode hex="03BC"/>
  <outline>
    <contour>
      <point x="110" y="-160" type="line"/>
      <point x="110" y="-211"/>
      <point x="128" y="-241"/>
      <point x="164" y="-241" type="curve" smooth="yes"/>
      <point x="201" y="-241"/>
      <point x="220" y="-214"/>
      <point x="220" y="-174" type="curve" smooth="yes"/>
      <point x="220" y="-136"/>
      <point x="193" y="-8"/>
      <point x="172" y="79" type="curve"/>
      <point x="176" y="80" type="line"/>
      <point x="202" y="24"/>
      <point x="244" y="-9"/>
      <point x="305" y="-9" type="curve"/>
      <point x="375" y="-9"/>
      <point x="428" y="24"/>
      <point x="468" y="88" type="curve"/>
      <point x="471" y="88" type="line"/>
      <point x="482" y="-10" type="line"/>
      <point x="645" y="1" type="line"/>
      <point x="645" y="35" type="line"/>
      <point x="586" y="35"/>
      <point x="574" y="40"/>
      <point x="568" y="72" type="curve" smooth="yes"/>
      <point x="564" y="93"/>
      <point x="562" y="136"/>
      <point x="562" y="209" type="curve" smooth="yes"/>
      <point x="562" y="492" type="line"/>
      <point x="372" y="492" type="line"/>
      <point x="372" y="457" type="line"/>
      <point x="446" y="450"/>
      <point x="451" y="442"/>
      <point x="451" y="342" type="curve" smooth="yes"/>
      <point x="451" y="240" type="line"/>
      <point x="451" y="115"/>
      <point x="401" y="49"/>
      <point x="322" y="49" type="curve"/>
      <point x="261" y="49"/>
      <point x="220" y="84"/>
      <point x="220" y="211" type="curve"/>
      <point x="220" y="492" type="line"/>
      <point x="32" y="492" type="line"/>
      <point x="32" y="457" type="line"/>
      <point x="104" y="450"/>
      <point x="110" y="443"/>
      <point x="110" y="342" type="curve" smooth="yes"/>
    </contour>
    <contour>
      <point x="311" y="604" type="move" name="top"/>
    </contour>
    <contour>
      <point x="303" y="-21" type="move" name="bottom"/>
    </contour>
  </outline>
</glyph>
<glyph name="apostrophe" format="1">
  <advance width="184"/>
  <unicode hex="2019"/>
  <outline>
    <contour>
      <point x="108" y="560" type="line"/>
      <point x="117" y="613"/>
      <point x="140" y="693"/>
      <point x="140" y="719" type="curve" smooth="yes"/>
      <point x="140" y="749"/>
      <point x="119" y="770"/>
      <point x="92" y="770" type="curve" smooth="yes"/>
      <point x="65" y="770"/>
      <point x="45" y="749"/>
      <point x="45" y="720" type="curve" smooth="yes"/>
      <point x="45" y="694"/>
      <point x="68" y="613"/>
      <point x="76" y="560" type="curve"/>
    </contour>
  </outline>
</glyph>
<glyph name="quotedblleft" format="1">
  <advance width="443"/>
  <unicode hex="201C"/>
  <outline>
    <contour>
      <point x="367" y="770" type="line"/>
      <point x="283" y="724"/>
      <point x="239" y="669"/>
      <point x="239" y="602" type="curve" smooth="yes"/>
      <point x="239" y="547"/>
      <point x="264" y="509"/>
      <point x="313" y="509" type="curve" smooth="yes"/>
      <point x="359" y="509"/>
      <point x="387" y="539"/>
      <point x="387" y="576" type="curve" smooth="yes"/>
      <point x="387" y="614"/>
      <point x="364" y="637"/>
      <point x="333" y="637" type="curve" smooth="yes"/>
      <point x="319" y="637"/>
      <point x="309" y="633"/>
      <point x="302" y="629" type="curve"/>
      <point x="302" y="667"/>
      <point x="328" y="703"/>
      <point x="391" y="739" type="curve"/>
    </contour>
    <contour>
      <point x="175" y="770" type="line"/>
      <point x="91" y="724"/>
      <point x="47" y="669"/>
      <point x="47" y="602" type="curve" smooth="yes"/>
      <point x="47" y="547"/>
      <point x="72" y="509"/>
      <point x="121" y="509" type="curve" smooth="yes"/>
      <point x="168" y="509"/>
      <point x="196" y="539"/>
      <point x="196" y="576" type="curve" smooth="yes"/>
      <point x="196" y="614"/>
      <point x="173" y="637"/>
      <point x="141" y="637" type="curve" smooth="yes"/>
      <point x="128" y="637"/>
      <point x="117" y="633"/>
      <point x="110" y="629" type="curve"/>
      <point x="110" y="667"/>
      <point x="137" y="703"/>
      <point x="199" y="739" type="curve"/>
    </contour>
  </outline>
</glyph>
<glyph name="dagger" format="1">
  <advance width="520"/>
  <unicode hex="2020"/>
  <outline>
    <contour>
      <point x="89" y="395" type="curve" smooth="yes"/>
      <point x="133" y="395"/>
      <point x="159" y="426"/>
      <point x="239" y="434" type="curve"/>
      <point x="238" y="343"/>
      <point x="221" y="294"/>
      <point x="182" y="242" type="curve"/>
      <point x="212" y="142"/>
      <point x="239" y="-86"/>
      <point x="239" y="-241" type="curve"/>
      <point x="281" y="-241" type="line"/>
      <point x="281" y="-86"/>
      <point x="308" y="142"/>
      <point x="337" y="242" type="curve"/>
      <point x="299" y="294"/>
      <point x="281" y="343"/>
      <point x="281" y="434" type="curve"/>
      <point x="364" y="426"/>
      <point x="390" y="395"/>
      <point x="430" y="395" type="curve" smooth="yes"/>
      <point x="468" y="395"/>
      <point x="495" y="421"/>
      <point x="493" y="456" type="curve" smooth="yes"/>
      <point x="495" y="491"/>
      <point x="468" y="518"/>
      <point x="430" y="518" type="curve" smooth="yes"/>
      <point x="390" y="518"/>
      <point x="365" y="487"/>
      <point x="281" y="477" type="curve"/>
      <point x="288" y="586"/>
      <point x="325" y="613"/>
      <point x="324" y="663" type="curve" smooth="yes"/>
      <point x="325" y="698"/>
      <point x="298" y="724"/>
      <point x="261" y="724" type="curve" smooth="yes"/>
      <point x="226" y="724"/>
      <point x="200" y="698"/>
      <point x="198" y="663" type="curve" smooth="yes"/>
      <point x="200" y="612"/>
      <point x="238" y="585"/>
      <point x="239" y="477" type="curve"/>
      <point x="158" y="486"/>
      <point x="132" y="518"/>
      <point x="89" y="518" type="curve" smooth="yes"/>
      <point x="55" y="518"/>
      <point x="28" y="491"/>
      <point x="26" y="456" type="curve" smooth="yes"/>
      <point x="28" y="421"/>
      <point x="55" y="395"/>
    </contour>
  </outline>
</glyph>
<glyph name="daggerdbl" format="1">
  <advance width="552"/>
  <unicode hex="2021"/>
  <outline>
    <contour>
      <point x="355" y="242" type="curve"/>
      <point x="316" y="294"/>
      <point x="297" y="342"/>
      <point x="297" y="433" type="curve"/>
      <point x="378" y="425"/>
      <point x="404" y="394"/>
      <point x="446" y="394" type="curve" smooth="yes"/>
      <point x="482" y="394"/>
      <point x="509" y="420"/>
      <point x="509" y="455" type="curve" smooth="yes"/>
      <point x="509" y="490"/>
      <point x="482" y="517"/>
      <point x="446" y="517" type="curve" smooth="yes"/>
      <point x="404" y="517"/>
      <point x="379" y="486"/>
      <point x="297" y="477" type="curve"/>
      <point x="302" y="585"/>
      <point x="340" y="613"/>
      <point x="340" y="662" type="curve" smooth="yes"/>
      <point x="340" y="697"/>
      <point x="313" y="724"/>
      <point x="277" y="724" type="curve" smooth="yes"/>
      <point x="241" y="724"/>
      <point x="214" y="697"/>
      <point x="214" y="662" type="curve" smooth="yes"/>
      <point x="214" y="612"/>
      <point x="253" y="584"/>
      <point x="255" y="477" type="curve"/>
      <point x="172" y="485"/>
      <point x="147" y="517"/>
      <point x="105" y="517" type="curve" smooth="yes"/>
      <point x="70" y="517"/>
      <point x="43" y="490"/>
      <point x="43" y="455" type="curve" smooth="yes"/>
      <point x="43" y="420"/>
      <point x="70" y="394"/>
      <point x="105" y="394" type="curve" smooth="yes"/>
      <point x="147" y="394"/>
      <point x="173" y="425"/>
      <point x="256" y="433" type="curve"/>
      <point x="255" y="342"/>
      <point x="238" y="294"/>
      <point x="199" y="242" type="curve"/>
      <point x="238" y="189"/>
      <point x="254" y="140"/>
      <point x="255" y="50" type="curve"/>
      <point x="173" y="57"/>
      <point x="147" y="88"/>
      <point x="105" y="88" type="curve" smooth="yes"/>
      <point x="70" y="88"/>
      <point x="43" y="62"/>
      <point x="43" y="27" type="curve" smooth="yes"/>
      <point x="43" y="-8"/>
      <point x="70" y="-35"/>
      <point x="105" y="-35" type="curve" smooth="yes"/>
      <point x="147" y="-35"/>
      <point x="172" y="-3"/>
      <point x="254" y="5" type="curve"/>
      <point x="252" y="-102"/>
      <point x="214" y="-129"/>
      <point x="214" y="-179" type="curve" smooth="yes"/>
      <point x="214" y="-214"/>
      <point x="241" y="-241"/>
      <point x="277" y="-241" type="curve" smooth="yes"/>
      <point x="313" y="-241"/>
      <point x="340" y="-214"/>
      <point x="340" y="-179" type="curve" smooth="yes"/>
      <point x="340" y="-130"/>
      <point x="303" y="-103"/>
      <point x="298" y="5" type="curve"/>
      <point x="380" y="-4"/>
      <point x="404" y="-35"/>
      <point x="446" y="-35" type="curve" smooth="yes"/>
      <point x="482" y="-35"/>
      <point x="509" y="-8"/>
      <point x="509" y="27" type="curve" smooth="yes"/>
      <point x="509" y="62"/>
      <point x="482" y="88"/>
      <point x="446" y="88" type="curve" smooth="yes"/>
      <point x="404" y="88"/>
      <point x="379" y="57"/>
      <point x="298" y="50" type="curve"/>
      <point x="298" y="140"/>
      <point x="316" y="191"/>
    </contour>
  </outline>
</glyph>
<glyph name="bullet" format="1">
  <advance width="437"/>
  <unicode hex="2022"/>
  <outline>
    <contour>
      <point x="216" y="198" type="curve" smooth="yes"/>
      <point x="299" y="198"/>
      <point x="365" y="264"/>
      <point x="365" y="343" type="curve" smooth="yes"/>
      <point x="365" y="421"/>
      <point x="299" y="486"/>
      <point x="221" y="486" type="curve" smooth="yes"/>
      <point x="140" y="486"/>
      <point x="73" y="421"/>
      <point x="73" y="343" type="curve" smooth="yes"/>
      <point x="73" y="264"/>
      <point x="140" y="198"/>
    </contour>
  </outline>
</glyph>
<glyph name="guilsinglleft" format="1">
  <advance width="301"/>
  <unicode hex="2039"/>
  <outline>
    <contour>
      <point x="211" y="85" type="line"/>
      <point x="235" y="105" type="line"/>
      <point x="148" y="243" type="line"/>
      <point x="237" y="381" type="line"/>
      <point x="213" y="402" type="line"/>
      <point x="44" y="243" type="line"/>
    </contour>
  </outline>
</glyph>
<glyph name="guilsinglright" format="1">
  <advance width="301"/>
  <unicode hex="203A"/>
  <outline>
    <contour>
      <point x="257" y="243" type="line"/>
      <point x="89" y="402" type="line"/>
      <point x="65" y="381" type="line"/>
      <point x="154" y="243" type="line"/>
      <point x="66" y="105" type="line"/>
      <point x="91" y="85" type="line"/>
    </contour>
  </outline>
</glyph>
<glyph name="fivesuperior" format="1">
  <advance width="244"/>
  <unicode hex="2075"/>
  <outline>
    <contour>
      <point x="104" y="677" type="line"/>
      <point x="137" y="677" type="line"/>
      <point x="173" y="677"/>
      <point x="198" y="694"/>
      <point x="204" y="724" type="curve"/>
      <point x="200" y="724" type="line"/>
      <point x="191" y="720"/>
      <point x="164" y="717"/>
      <point x="140" y="717" type="curve" smooth="yes"/>
      <point x="119" y="717"/>
      <point x="103" y="720"/>
      <point x="93" y="724" type="curve"/>
      <point x="53.204263892" y="570.939476508"/>
      <point x="52" y="568"/>
      <point x="52" y="566" type="curve" smooth="yes"/>
      <point x="52" y="560"/>
      <point x="56" y="558"/>
      <point x="62" y="558" type="curve" smooth="yes"/>
      <point x="69" y="558"/>
      <point x="72" y="561"/>
      <point x="77" y="571" type="curve" smooth="yes"/>
      <point x="88" y="591"/>
      <point x="102" y="601"/>
      <point x="121" y="601" type="curve" smooth="yes"/>
      <point x="144" y="601"/>
      <point x="156" y="582"/>
      <point x="156" y="547" type="curve" smooth="yes"/>
      <point x="156" y="490"/>
      <point x="133" y="456"/>
      <point x="92" y="456" type="curve" smooth="yes"/>
      <point x="75" y="456"/>
      <point x="67" y="463"/>
      <point x="61" y="476" type="curve" smooth="yes"/>
      <point x="52" y="497"/>
      <point x="50" y="507"/>
      <point x="34" y="507" type="curve" smooth="yes"/>
      <point x="23" y="507"/>
      <point x="15" y="500"/>
      <point x="15" y="485" type="curve" smooth="yes"/>
      <point x="15" y="453"/>
      <point x="48" y="431"/>
      <point x="94" y="431" type="curve" smooth="yes"/>
      <point x="162" y="431"/>
      <point x="214" y="477"/>
      <point x="214" y="536" type="curve" smooth="yes"/>
      <point x="214" y="589"/>
      <point x="178" y="625"/>
      <point x="129" y="625" type="curve" smooth="yes"/>
      <point x="112" y="625"/>
      <point x="98" y="621"/>
      <point x="89" y="613" type="curve"/>
      <point x="87" y="616" type="line"/>
    </contour>
  </outline>
</glyph>
<glyph name="sevensuperior" format="1">
  <advance width="218"/>
  <unicode hex="2077"/>
  <outline>
    <contour>
      <point x="118" y="581" type="line"/>
      <point x="58" y="474"/>
      <point x="49" y="459"/>
      <point x="49" y="446" type="curve" smooth="yes"/>
      <point x="49" y="433"/>
      <point x="56" y="425"/>
      <point x="71" y="425" type="curve" smooth="yes"/>
      <point x="87" y="425"/>
      <point x="100" y="437"/>
      <point x="113" y="472" type="curve" smooth="yes"/>
      <point x="145" y="555"/>
      <point x="155" y="588"/>
      <point x="210" y="707" type="curve"/>
      <point x="210" y="714" type="line"/>
      <point x="94" y="714" type="line"/>
      <point x="70" y="714"/>
      <point x="65" y="716"/>
      <point x="65" y="725" type="curve" smooth="yes"/>
      <point x="65" y="728"/>
      <point x="66" y="735"/>
      <point x="67" y="737" type="curve"/>
      <point x="46" y="737" type="line"/>
      <point x="20" y="633" type="line"/>
      <point x="39" y="633" type="line"/>
      <point x="45" y="648" type="line"/>
      <point x="56" y="672"/>
      <point x="61" y="675"/>
      <point x="101" y="675" type="curve" smooth="yes"/>
      <point x="167" y="675" type="line"/>
    </contour>
  </outline>
</glyph>
<glyph name="ninesuperior" format="1">
  <advance width="273"/>
  <unicode hex="2079"/>
  <outline>
    <contour>
      <point x="29" y="623" type="curve" smooth="yes"/>
      <point x="29" y="573"/>
      <point x="70" y="533"/>
      <point x="123" y="533" type="curve" smooth="yes"/>
      <point x="148" y="533"/>
      <point x="169" y="543"/>
      <point x="185" y="567" type="curve"/>
      <point x="188" y="565" type="line"/>
      <point x="188" y="501"/>
      <point x="160" y="456"/>
      <point x="128" y="456" type="curve" smooth="yes"/>
      <point x="90" y="456"/>
      <point x="98" y="492"/>
      <point x="67" y="492" type="curve" smooth="yes"/>
      <point x="54" y="492"/>
      <point x="45" y="484"/>
      <point x="45" y="471" type="curve" smooth="yes"/>
      <point x="45" y="448"/>
      <point x="78" y="431"/>
      <point x="119" y="431" type="curve" smooth="yes"/>
      <point x="187" y="431"/>
      <point x="242" y="504"/>
      <point x="242" y="594" type="curve" smooth="yes"/>
      <point x="242" y="671"/>
      <point x="199" y="724"/>
      <point x="137" y="724" type="curve" smooth="yes"/>
      <point x="77" y="724"/>
      <point x="29" y="679"/>
    </contour>
    <contour>
      <point x="184" y="602" type="line"/>
      <point x="167" y="573"/>
      <point x="152" y="560"/>
      <point x="131" y="560" type="curve" smooth="yes"/>
      <point x="103" y="560"/>
      <point x="87" y="583"/>
      <point x="87" y="627" type="curve" smooth="yes"/>
      <point x="87" y="678"/>
      <point x="104" y="702"/>
      <point x="136" y="702" type="curve" smooth="yes"/>
      <point x="168" y="702"/>
      <point x="184" y="674"/>
      <point x="184" y="621" type="curve" smooth="yes"/>
    </contour>
  </outline>
</glyph>
<glyph name="zeroinferior" format="1">
  <advance width="290"/>
  <unicode hex="2080"/>
  <outline>
    <contour>
      <point x="145" y="284" type="curve" smooth="yes"/>
      <point x="82" y="284"/>
      <point x="31" y="219"/>
      <point x="31" y="136" type="curve" smooth="yes"/>
      <point x="31" y="55"/>
      <point x="82" y="-9"/>
      <point x="145" y="-9" type="curve" smooth="yes"/>
      <point x="207" y="-9"/>
      <point x="259" y="55"/>
      <point x="259" y="136" type="curve" smooth="yes"/>
      <point x="259" y="219"/>
      <point x="207" y="284"/>
    </contour>
    <contour>
      <point x="145" y="19" type="curve" smooth="yes"/>
      <point x="111" y="19"/>
      <point x="91" y="44"/>
      <point x="91" y="134" type="curve" smooth="yes"/>
      <point x="91" y="228"/>
      <point x="111" y="257"/>
      <point x="145" y="257" type="curve" smooth="yes"/>
      <point x="180" y="257"/>
      <point x="199" y="228"/>
      <point x="199" y="134" type="curve" smooth="yes"/>
      <point x="199" y="44"/>
      <point x="179" y="19"/>
    </contour>
  </outline>
</glyph>
<glyph name="oneinferior" format="1">
  <advance width="230"/>
  <unicode hex="2081"/>
  <outline>
    <contour>
      <point x="141" y="289" type="line"/>
      <point x="113" y="281"/>
      <point x="80" y="275"/>
      <point x="51" y="274" type="curve"/>
      <point x="51" y="253" type="line"/>
      <point x="77" y="253"/>
      <point x="90" y="251"/>
      <point x="91" y="241" type="curve" smooth="yes"/>
      <point x="93" y="236"/>
      <point x="93" y="216"/>
      <point x="93" y="187" type="curve" smooth="yes"/>
      <point x="93" y="64" type="line"/>
      <point x="93" y="29"/>
      <point x="88" y="22"/>
      <point x="53" y="21" type="curve"/>
      <point x="53" y="0" type="line"/>
      <point x="181" y="0" type="line"/>
      <point x="181" y="21" type="line"/>
      <point x="146" y="22"/>
      <point x="141" y="29"/>
      <point x="141" y="67" type="curve" smooth="yes"/>
    </contour>
  </outline>
</glyph>
<glyph name="eightinferior" format="1">
  <advance width="261"/>
  <unicode hex="2088"/>
  <outline>
    <contour>
      <point x="140" y="115" type="line"/>
      <point x="176" y="93"/>
      <point x="183" y="80"/>
      <point x="183" y="62" type="curve" smooth="yes"/>
      <point x="183" y="35"/>
      <point x="159" y="17"/>
      <point x="133" y="17" type="curve" smooth="yes"/>
      <point x="98" y="17"/>
      <point x="76" y="34"/>
      <point x="76" y="67" type="curve" smooth="yes"/>
      <point x="76" y="94"/>
      <point x="92" y="115"/>
      <point x="117" y="128" type="curve"/>
    </contour>
    <contour>
      <point x="168" y="155" type="curve"/>
      <point x="195" y="171"/>
      <point x="217" y="187"/>
      <point x="217" y="219" type="curve" smooth="yes"/>
      <point x="217.0" y="259.0"/>
      <point x="171.0" y="284.0"/>
      <point x="129" y="284" type="curve" smooth="yes"/>
      <point x="84.5711919503" y="284.0"/>
      <point x="40.0" y="250.393108146"/>
      <point x="40" y="211" type="curve" smooth="yes"/>
      <point x="40" y="174"/>
      <point x="65" y="153"/>
      <point x="94" y="137" type="curve"/>
      <point x="61" y="122"/>
      <point x="31" y="99"/>
      <point x="31" y="60" type="curve" smooth="yes"/>
      <point x="31" y="13"/>
      <point x="85" y="-9"/>
      <point x="129" y="-9" type="curve" smooth="yes"/>
      <point x="182" y="-9"/>
      <point x="229" y="22"/>
      <point x="229" y="73" type="curve" smooth="yes"/>
      <point x="229" y="112"/>
      <point x="201" y="138"/>
    </contour>
    <contour>
      <point x="127" y="175" type="line"/>
      <point x="98" y="190"/>
      <point x="87" y="203"/>
      <point x="87" y="222" type="curve" smooth="yes"/>
      <point x="87" y="242"/>
      <point x="103" y="258"/>
      <point x="131" y="258" type="curve" smooth="yes"/>
      <point x="161" y="258"/>
      <point x="177" y="238"/>
      <point x="177" y="213" type="curve" smooth="yes"/>
      <point x="177" y="196"/>
      <point x="161" y="175"/>
      <point x="145" y="166" type="curve"/>
    </contour>
  </outline>
</glyph>
<glyph name="nineinferior" format="1">
  <advance width="273"/>
  <unicode hex="2089"/>
  <outline>
    <contour>
      <point x="29" y="183" type="curve" smooth="yes"/>
      <point x="29" y="133"/>
      <point x="70" y="94"/>
      <point x="123" y="94" type="curve" smooth="yes"/>
      <point x="148" y="94"/>
      <point x="169" y="104"/>
      <point x="185" y="128" type="curve"/>
      <point x="188" y="126" type="line"/>
      <point x="188" y="61"/>
      <point x="160" y="17"/>
      <point x="128" y="17" type="curve" smooth="yes"/>
      <point x="90" y="17"/>
      <point x="98" y="53"/>
      <point x="67" y="53" type="curve" smooth="yes"/>
      <point x="54" y="53"/>
      <point x="45" y="44"/>
      <point x="45" y="31" type="curve" smooth="yes"/>
      <point x="45" y="8"/>
      <point x="78" y="-9"/>
      <point x="119" y="-9" type="curve" smooth="yes"/>
      <point x="187" y="-9"/>
      <point x="242" y="64"/>
      <point x="242" y="154" type="curve" smooth="yes"/>
      <point x="242" y="231"/>
      <point x="199" y="284"/>
      <point x="137" y="284" type="curve" smooth="yes"/>
      <point x="77" y="284"/>
      <point x="29" y="239"/>
    </contour>
    <contour>
      <point x="184" y="164" type="line"/>
      <point x="167" y="133"/>
      <point x="152" y="121"/>
      <point x="131" y="121" type="curve" smooth="yes"/>
      <point x="103" y="121"/>
      <point x="87" y="143"/>
      <point x="87" y="188" type="curve" smooth="yes"/>
      <point x="87" y="238"/>
      <point x="104" y="263"/>
      <point x="136" y="263" type="curve" smooth="yes"/>
      <point x="168" y="263"/>
      <point x="184" y="235"/>
      <point x="184" y="182" type="curve" smooth="yes"/>
    </contour>
  </outline>
</glyph>
<glyph name="servicemark" format="1">
  <advance width="742"/>
  <unicode hex="2120"/>
  <outline>
    <contour>
      <point x="70" y="438" type="line"/>
      <point x="81" y="438" type="line"/>
      <point x="92" y="456" type="line"/>
      <point x="113" y="441"/>
      <point x="134" y="431"/>
      <point x="168" y="431" type="curve"/>
      <point x="220" y="431"/>
      <point x="267" y="461"/>
      <point x="267" y="512" type="curve"/>
      <point x="267" y="554"/>
      <point x="248" y="576"/>
      <point x="170" y="611" type="curve" smooth="yes"/>
      <point x="132" y="628"/>
      <point x="118" y="641"/>
      <point x="118" y="663" type="curve" smooth="yes"/>
      <point x="118" y="686"/>
      <point x="138" y="698"/>
      <point x="163" y="698" type="curve" smooth="yes"/>
      <point x="193" y="698"/>
      <point x="212" y="682"/>
      <point x="226" y="645" type="curve"/>
      <point x="244" y="645" type="line"/>
      <point x="241" y="718" type="line"/>
      <point x="232" y="718" type="line"/>
      <point x="221" y="701" type="line"/>
      <point x="201" y="717"/>
      <point x="183" y="724"/>
      <point x="162" y="724" type="curve" smooth="yes"/>
      <point x="114" y="724"/>
      <point x="76" y="694"/>
      <point x="76" y="648" type="curve" smooth="yes"/>
      <point x="76" y="607"/>
      <point x="98" y="583"/>
      <point x="159" y="557" type="curve" smooth="yes"/>
      <point x="207" y="536"/>
      <point x="220" y="522"/>
      <point x="220" y="497" type="curve" smooth="yes"/>
      <point x="220" y="470"/>
      <point x="196" y="456"/>
      <point x="164" y="456" type="curve" smooth="yes"/>
      <point x="120" y="456"/>
      <point x="92" y="483"/>
      <point x="86" y="521" type="curve"/>
      <point x="67" y="521" type="line"/>
    </contour>
    <contour>
      <point x="585" y="503" type="curve" smooth="yes"/>
      <point x="585" y="668" type="line"/>
      <point x="581" y="668" type="line"/>
      <point x="473" y="425" type="line"/>
      <point x="463" y="425" type="line"/>
      <point x="360" y="668" type="line"/>
      <point x="356" y="668" type="line"/>
      <point x="356" y="506" type="line"/>
      <point x="356" y="457"/>
      <point x="362" y="450"/>
      <point x="398" y="449" type="curve"/>
      <point x="398" y="429" type="line"/>
      <point x="285" y="429" type="line"/>
      <point x="285" y="449" type="line"/>
      <point x="320" y="450"/>
      <point x="326" y="457"/>
      <point x="326" y="503" type="curve" smooth="yes"/>
      <point x="326" y="640" type="line"/>
      <point x="326" y="682"/>
      <point x="320" y="694"/>
      <point x="288" y="694" type="curve"/>
      <point x="288" y="714" type="line"/>
      <point x="396" y="714" type="line"/>
      <point x="479" y="508" type="line"/>
      <point x="482" y="508" type="line"/>
      <point x="572" y="714" type="line"/>
      <point x="671" y="714" type="line"/>
      <point x="671" y="694" type="line"/>
      <point x="640" y="694"/>
      <point x="633" y="682"/>
      <point x="633" y="637" type="curve" smooth="yes"/>
      <point x="633" y="506" type="line"/>
      <point x="633" y="457"/>
      <point x="639" y="450"/>
      <point x="675" y="449" type="curve"/>
      <point x="675" y="429" type="line"/>
      <point x="543" y="429" type="line"/>
      <point x="543" y="449" type="line"/>
      <point x="579" y="450"/>
      <point x="585" y="458"/>
    </contour>
  </outline>
</glyph>
<glyph name="onethird" format="1">
  <advance width="642"/>
  <unicode hex="2153"/>
  <outline>
    <contour>
      <point x="606" y="714" type="line"/>
      <point x="552" y="714" type="line"/>
      <point x="27" y="0" type="line"/>
      <point x="90" y="0" type="line"/>
    </contour>
    <component base="onesuperior" xOffset="72"/>
    <component base="threeinferior" xOffset="324"/>
  </outline>
</glyph>
<glyph name="oneeighth" format="1">
  <advance width="642"/>
  <unicode hex="215B"/>
  <outline>
    <contour>
      <point x="606" y="714" type="line"/>
      <point x="552" y="714" type="line"/>
      <point x="27" y="0" type="line"/>
      <point x="90" y="0" type="line"/>
    </contour>
    <component base="onesuperior" xOffset="72"/>
    <component base="eightinferior" xOffset="323"/>
  </outline>
</glyph>
<glyph name="threeeighths" format="1">
  <advance width="643"/>
  <unicode hex="215C"/>
  <outline>
    <contour>
      <point x="613" y="714" type="line"/>
      <point x="559" y="714" type="line"/>
      <point x="35" y="0" type="line"/>
      <point x="97" y="0" type="line"/>
    </contour>
    <component base="eightinferior" xOffset="331"/>
    <component base="threesuperior" xOffset="47"/>
  </outline>
</glyph>
<glyph name="uni2215" format="1">
  <advance width="530"/>
  <unicode hex="2215"/>
  <outline>
    <contour>
      <point x="556" y="714" type="line"/>
      <point x="499" y="714" type="line"/>
      <point x="-25" y="0" type="line"/>
      <point x="40" y="0" type="line"/>
    </contour>
  </outline>
</glyph>
<glyph name="uni2219" format="1">
  <advance width="263"/>
  <unicode hex="2219"/>
  <outline>
    <contour>
      <point x="66" y="254" type="curve" smooth="yes"/>
      <point x="66" y="219"/>
      <point x="95" y="190"/>
      <point x="131" y="190" type="curve" smooth="yes"/>
      <point x="169" y="190"/>
      <point x="197" y="219"/>
      <point x="197" y="254" type="curve" smooth="yes"/>
      <point x="197" y="291"/>
      <point x="169" y="320"/>
      <point x="131" y="320" type="curve" smooth="yes"/>
      <point x="95" y="320"/>
      <point x="66" y="291"/>
    </contour>
  </outline>
</glyph>
<glyph name=".notdef" format="1">
  <advance width="701"/>
  <outline>
    <contour>
      <point x="121" y="-241" type="line"/>
      <point x="581" y="-241" type="line"/>
      <point x="581" y="900" type="line"/>
      <point x="121" y="900" type="line"/>
    </contour>
    <contour>
      <point x="223" y="845" type="line"/>
      <point x="478" y="845" type="line"/>
      <point x="478" y="-185" type="line"/>
      <point x="223" y="-185" type="line"/>
    </contour>
  </outline>
</glyph>
<glyph name="caron.alt" format="1">
  <advance width="153"/>
  <outline>
    <contour>
      <point x="47" y="531" type="line"/>
      <point x="111" y="569"/>
      <point x="135" y="606"/>
      <point x="135" y="650" type="curve" smooth="yes"/>
      <point x="135" y="696"/>
      <point x="113" y="724"/>
      <point x="75" y="724" type="curve" smooth="yes"/>
      <point x="39" y="724"/>
      <point x="14" y="700"/>
      <point x="14" y="671" type="curve" smooth="yes"/>
      <point x="14" y="645"/>
      <point x="33" y="627"/>
      <point x="57" y="627" type="curve" smooth="yes"/>
      <point x="67" y="627"/>
      <point x="76" y="630"/>
      <point x="81" y="634" type="curve"/>
      <point x="81" y="605"/>
      <point x="63" y="582"/>
      <point x="24" y="557" type="curve"/>
    </contour>
    <contour>
      <point x="75" y="604" type="move" name="_top"/>
    </contour>
  </outline>
</glyph>
<glyph name="dotaccent.cap" format="1">
  <advance width="156"/>
  <outline>
    <contour>
      <point x="23" y="834" type="curve" smooth="yes"/>
      <point x="23" y="806"/>
      <point x="49" y="781"/>
      <point x="78" y="781" type="curve" smooth="yes"/>
      <point x="110" y="781"/>
      <point x="135" y="806"/>
      <point x="135" y="834" type="curve" smooth="yes"/>
      <point x="135" y="865"/>
      <point x="110" y="889"/>
      <point x="78" y="889" type="curve" smooth="yes"/>
      <point x="49" y="889"/>
      <point x="23" y="865"/>
    </contour>
    <contour>
      <point x="78" y="770" type="move" name="_topcap"/>
    </contour>
  </outline>
</glyph>
<glyph name="dotbelow" format="1">
  <advance width="155"/>
  <outline>
    <contour>
      <point x="14" y="-155" type="curve" smooth="yes"/>
      <point x="14" y="-191"/>
      <point x="42" y="-218"/>
      <point x="78" y="-218" type="curve" smooth="yes"/>
      <point x="114" y="-218"/>
      <point x="142" y="-191"/>
      <point x="142" y="-155" type="curve" smooth="yes"/>
      <point x="142" y="-118"/>
      <point x="114" y="-90"/>
      <point x="78" y="-90" type="curve" smooth="yes"/>
      <point x="42" y="-90"/>
      <point x="14" y="-118"/>
    </contour>
    <contour>
      <point x="78" y="0" type="move" name="_bottom"/>
    </contour>
  </outline>
</glyph>
<glyph name="f_b" format="1">
  <advance width="948"/>
  <outline>
    <contour>
      <point x="19" y="430" type="line"/>
      <point x="122" y="430" type="line"/>
      <point x="122" y="144" type="line"/>
      <point x="122" y="51"/>
      <point x="112" y="38"/>
      <point x="40" y="35" type="curve"/>
      <point x="40" y="0" type="line"/>
      <point x="317" y="0" type="line"/>
      <point x="317" y="35" type="line"/>
      <point x="247" y="37"/>
      <point x="232" y="59"/>
      <point x="232" y="152" type="curve" smooth="yes"/>
      <point x="232" y="430" type="line"/>
      <point x="363" y="430" type="line"/>
      <point x="363" y="477" type="line"/>
      <point x="232" y="477" type="line"/>
      <point x="232" y="566" type="line"/>
      <point x="232" y="685"/>
      <point x="259" y="721"/>
      <point x="324" y="721" type="curve"/>
      <point x="376" y="721"/>
      <point x="419" y="683"/>
      <point x="440" y="657" type="curve"/>
      <point x="467" y="657"/>
      <point x="501" y="673"/>
      <point x="501" y="703" type="curve" smooth="yes"/>
      <point x="501" y="743"/>
      <point x="427" y="770"/>
      <point x="343" y="770" type="curve" smooth="yes"/>
      <point x="203" y="770"/>
      <point x="122" y="694"/>
      <point x="122" y="548" type="curve" smooth="yes"/>
      <point x="122" y="477" type="line"/>
      <point x="19" y="477" type="line"/>
    </contour>
    <contour>
      <point x="549" y="270" type="line"/>
      <point x="549" y="391"/>
      <point x="589" y="451"/>
      <point x="666" y="451" type="curve" smooth="yes"/>
      <point x="748" y="451"/>
      <point x="787" y="371"/>
      <point x="787" y="244" type="curve" smooth="yes"/>
      <point x="787" y="116"/>
      <point x="749" y="39"/>
      <point x="668" y="39" type="curve" smooth="yes"/>
      <point x="591" y="39"/>
      <point x="549" y="106"/>
      <point x="549" y="198" type="curve" smooth="yes"/>
    </contour>
    <contour>
      <point x="547" y="770" type="line"/>
      <point x="355" y="733" type="line"/>
      <point x="355" y="721" type="line"/>
      <point x="438" y="690" type="line"/>
      <point x="438" y="0" type="line"/>
      <point x="469" y="0" type="line"/>
      <point x="521" y="62" type="line"/>
      <point x="566" y="13"/>
      <point x="623" y="-10"/>
      <point x="692" y="-10" type="curve" smooth="yes"/>
      <point x="826" y="-10"/>
      <point x="908" y="95"/>
      <point x="908" y="246" type="curve" smooth="yes"/>
      <point x="908" y="393"/>
      <point x="831" y="501"/>
      <point x="698" y="501" type="curve" smooth="yes"/>
      <point x="635" y="501"/>
      <point x="586" y="476"/>
      <point x="550" y="427" type="curve"/>
      <point x="547" y="427" type="line"/>
    </contour>
  </outline>
</glyph>
<glyph name="f_f_h" format="1">
  <advance width="1300"/>
  <outline>
    <contour>
      <point x="332" y="430" type="line"/>
      <point x="435" y="430" type="line"/>
      <point x="435" y="144" type="line"/>
      <point x="435" y="51"/>
      <point x="426" y="38"/>
      <point x="362" y="35" type="curve"/>
      <point x="362" y="0" type="line"/>
      <point x="630" y="0" type="line"/>
      <point x="630" y="35" type="line"/>
      <point x="561" y="37"/>
      <point x="546" y="59"/>
      <point x="546" y="152" type="curve" smooth="yes"/>
      <point x="546" y="430" type="line"/>
      <point x="677" y="430" type="line"/>
      <point x="677" y="477" type="line"/>
      <point x="546" y="477" type="line"/>
      <point x="546" y="566" type="line"/>
      <point x="546" y="685"/>
      <point x="572" y="721"/>
      <point x="638" y="721" type="curve"/>
      <point x="690" y="721"/>
      <point x="732" y="684"/>
      <point x="754" y="657" type="curve"/>
      <point x="781" y="657"/>
      <point x="815" y="673"/>
      <point x="815" y="703" type="curve" smooth="yes"/>
      <point x="815" y="747"/>
      <point x="798" y="770"/>
      <point x="657" y="770" type="curve" smooth="yes"/>
      <point x="549" y="770"/>
      <point x="478" y="724"/>
      <point x="448" y="638" type="curve"/>
      <point x="435" y="627" type="line"/>
      <point x="435" y="477" type="line"/>
      <point x="332" y="477" type="line"/>
    </contour>
    <contour>
      <point x="17" y="430" type="line"/>
      <point x="121" y="430" type="line"/>
      <point x="121" y="144" type="line"/>
      <point x="121" y="51"/>
      <point x="111" y="38"/>
      <point x="39" y="35" type="curve"/>
      <point x="39" y="0" type="line"/>
      <point x="315" y="0" type="line"/>
      <point x="315" y="35" type="line"/>
      <point x="248" y="37"/>
      <point x="230" y="59"/>
      <point x="230" y="152" type="curve" smooth="yes"/>
      <point x="230" y="430" type="line"/>
      <point x="381" y="430" type="line"/>
      <point x="381" y="477" type="line"/>
      <point x="230" y="477" type="line"/>
      <point x="230" y="529" type="line"/>
      <point x="230" y="644"/>
      <point x="258" y="685"/>
      <point x="323" y="685" type="curve"/>
      <point x="375" y="685"/>
      <point x="407" y="630"/>
      <point x="446" y="604" type="curve"/>
      <point x="485" y="655" type="line"/>
      <point x="481" y="695"/>
      <point x="423" y="733"/>
      <point x="336" y="733" type="curve"/>
      <point x="202" y="733"/>
      <point x="121" y="657"/>
      <point x="121" y="511" type="curve" smooth="yes"/>
      <point x="121" y="477" type="line"/>
      <point x="17" y="477" type="line"/>
    </contour>
    <contour>
      <point x="863" y="276" type="line"/>
      <point x="863" y="387"/>
      <point x="905" y="447"/>
      <point x="986" y="447" type="curve"/>
      <point x="1057" y="447"/>
      <point x="1095" y="402"/>
      <point x="1095" y="272" type="curve"/>
      <point x="1095" y="143" type="line"/>
      <point x="1095" y="50"/>
      <point x="1091" y="38"/>
      <point x="1019" y="35" type="curve"/>
      <point x="1019" y="0" type="line"/>
      <point x="1282" y="0" type="line"/>
      <point x="1282" y="35" type="line"/>
      <point x="1211" y="39"/>
      <point x="1205" y="48"/>
      <point x="1205" y="150" type="curve" smooth="yes"/>
      <point x="1205" y="293" type="line"/>
      <point x="1205" y="436"/>
      <point x="1135" y="501"/>
      <point x="1021" y="501" type="curve"/>
      <point x="953" y="501"/>
      <point x="898" y="473"/>
      <point x="865" y="427" type="curve"/>
      <point x="862" y="427" type="line"/>
      <point x="862" y="770" type="line"/>
      <point x="673" y="735" type="line"/>
      <point x="673" y="725" type="line"/>
      <point x="753" y="689" type="line"/>
      <point x="753" y="143" type="line"/>
      <point x="753" y="50"/>
      <point x="743" y="39"/>
      <point x="678" y="35" type="curve"/>
      <point x="678" y="0" type="line"/>
      <point x="937" y="0" type="line"/>
      <point x="937" y="35" type="line"/>
      <point x="865" y="39"/>
      <point x="863" y="48"/>
      <point x="863" y="150" type="curve" smooth="yes"/>
    </contour>
  </outline>
</glyph>
<glyph name="f_f_k" format="1">
  <advance width="1250"/>
  <outline>
    <contour>
      <point x="332" y="430" type="line"/>
      <point x="435" y="430" type="line"/>
      <point x="435" y="144" type="line"/>
      <point x="435" y="51"/>
      <point x="426" y="38"/>
      <point x="362" y="35" type="curve"/>
      <point x="362" y="0" type="line"/>
      <point x="630" y="0" type="line"/>
      <point x="630" y="35" type="line"/>
      <point x="561" y="37"/>
      <point x="546" y="59"/>
      <point x="546" y="152" type="curve" smooth="yes"/>
      <point x="546" y="430" type="line"/>
      <point x="677" y="430" type="line"/>
      <point x="677" y="477" type="line"/>
      <point x="546" y="477" type="line"/>
      <point x="546" y="566" type="line"/>
      <point x="546" y="685"/>
      <point x="572" y="721"/>
      <point x="638" y="721" type="curve"/>
      <point x="690" y="721"/>
      <point x="732" y="684"/>
      <point x="754" y="657" type="curve"/>
      <point x="781" y="657"/>
      <point x="815" y="673"/>
      <point x="815" y="703" type="curve" smooth="yes"/>
      <point x="815" y="747"/>
      <point x="740" y="770"/>
      <point x="657" y="770" type="curve" smooth="yes"/>
      <point x="548" y="770"/>
      <point x="474" y="724"/>
      <point x="447" y="636" type="curve"/>
      <point x="435" y="626" type="line"/>
      <point x="435" y="477" type="line"/>
      <point x="332" y="477" type="line"/>
    </contour>
    <contour>
      <point x="17" y="430" type="line"/>
      <point x="121" y="430" type="line"/>
      <point x="121" y="144" type="line"/>
      <point x="121" y="51"/>
      <point x="111" y="38"/>
      <point x="39" y="35" type="curve"/>
      <point x="39" y="0" type="line"/>
      <point x="315" y="0" type="line"/>
      <point x="315" y="35" type="line"/>
      <point x="248" y="37"/>
      <point x="230" y="59"/>
      <point x="230" y="152" type="curve" smooth="yes"/>
      <point x="230" y="430" type="line"/>
      <point x="381" y="430" type="line"/>
      <point x="381" y="477" type="line"/>
      <point x="230" y="477" type="line"/>
      <point x="230" y="529" type="line"/>
      <point x="230" y="644"/>
      <point x="258" y="685"/>
      <point x="323" y="685" type="curve"/>
      <point x="375" y="685"/>
      <point x="407" y="630"/>
      <point x="446" y="604" type="curve"/>
      <point x="485" y="655" type="line"/>
      <point x="481" y="695"/>
      <point x="423" y="733"/>
      <point x="336" y="733" type="curve"/>
      <point x="202" y="733"/>
      <point x="121" y="657"/>
      <point x="121" y="511" type="curve" smooth="yes"/>
      <point x="121" y="477" type="line"/>
      <point x="17" y="477" type="line"/>
    </contour>
    <contour>
      <point x="909" y="256" type="line"/>
      <point x="997" y="121" type="line"/>
      <point x="1021" y="85"/>
      <point x="1037" y="59"/>
      <point x="1037" y="48" type="curve" smooth="yes"/>
      <point x="1037" y="38"/>
      <point x="1024" y="35"/>
      <point x="991" y="35" type="curve"/>
      <point x="991" y="0" type="line"/>
      <point x="1249" y="0" type="line"/>
      <point x="1249" y="35" type="line"/>
      <point x="1204" y="35"/>
      <point x="1177" y="47"/>
      <point x="1147" y="89" type="curve" smooth="yes"/>
      <point x="982" y="324" type="line"/>
    </contour>
    <contour>
      <point x="948" y="0" type="line"/>
      <point x="948" y="35" type="line"/>
      <point x="876" y="36"/>
      <point x="864" y="53"/>
      <point x="864" y="150" type="curve"/>
      <point x="864" y="186" type="line"/>
      <point x="1103" y="405" type="line"/>
      <point x="1148" y="447"/>
      <point x="1175" y="457"/>
      <point x="1221" y="457" type="curve"/>
      <point x="1221" y="492" type="line"/>
      <point x="966" y="492" type="line"/>
      <point x="966" y="457" type="line"/>
      <point x="1021" y="457"/>
      <point x="1043" y="452"/>
      <point x="1044" y="438" type="curve" smooth="yes"/>
      <point x="1045" y="424"/>
      <point x="1032" y="406"/>
      <point x="963" y="342" type="curve" smooth="yes"/>
      <point x="864" y="250" type="line"/>
      <point x="864" y="770" type="line"/>
      <point x="668" y="735" type="line"/>
      <point x="668" y="724" type="line"/>
      <point x="754" y="709" type="line"/>
      <point x="754" y="143" type="line"/>
      <point x="754" y="54"/>
      <point x="736" y="37"/>
      <point x="673" y="35" type="curve"/>
      <point x="673" y="0" type="line"/>
    </contour>
  </outline>
</glyph>
<glyph name="f_f_l" format="1">
  <advance width="968"/>
  <outline>
    <contour>
      <point x="332" y="430" type="line"/>
      <point x="435" y="430" type="line"/>
      <point x="435" y="144" type="line"/>
      <point x="435" y="51"/>
      <point x="426" y="38"/>
      <point x="362" y="35" type="curve"/>
      <point x="362" y="0" type="line"/>
      <point x="630" y="0" type="line"/>
      <point x="630" y="35" type="line"/>
      <point x="561" y="37"/>
      <point x="546" y="59"/>
      <point x="546" y="152" type="curve" smooth="yes"/>
      <point x="546" y="430" type="line"/>
      <point x="677" y="430" type="line"/>
      <point x="677" y="477" type="line"/>
      <point x="546" y="477" type="line"/>
      <point x="546" y="566" type="line"/>
      <point x="546" y="685"/>
      <point x="572" y="721"/>
      <point x="638" y="721" type="curve"/>
      <point x="690" y="721"/>
      <point x="732" y="684"/>
      <point x="754" y="657" type="curve"/>
      <point x="781" y="657"/>
      <point x="815" y="673"/>
      <point x="815" y="703" type="curve" smooth="yes"/>
      <point x="815" y="747"/>
      <point x="740" y="770"/>
      <point x="657" y="770" type="curve" smooth="yes"/>
      <point x="548" y="770"/>
      <point x="475" y="725"/>
      <point x="448" y="637" type="curve"/>
      <point x="435" y="634" type="line"/>
      <point x="435" y="477" type="line"/>
      <point x="332" y="477" type="line"/>
    </contour>
    <contour>
      <point x="17" y="430" type="line"/>
      <point x="121" y="430" type="line"/>
      <point x="121" y="144" type="line"/>
      <point x="121" y="51"/>
      <point x="111" y="38"/>
      <point x="39" y="35" type="curve"/>
      <point x="39" y="0" type="line"/>
      <point x="315" y="0" type="line"/>
      <point x="315" y="35" type="line"/>
      <point x="248" y="37"/>
      <point x="230" y="59"/>
      <point x="230" y="152" type="curve" smooth="yes"/>
      <point x="230" y="430" type="line"/>
      <point x="381" y="430" type="line"/>
      <point x="381" y="477" type="line"/>
      <point x="230" y="477" type="line"/>
      <point x="230" y="529" type="line"/>
      <point x="230" y="644"/>
      <point x="258" y="685"/>
      <point x="323" y="685" type="curve"/>
      <point x="375" y="685"/>
      <point x="407" y="630"/>
      <point x="446" y="604" type="curve"/>
      <point x="485" y="655" type="line"/>
      <point x="481" y="695"/>
      <point x="423" y="733"/>
      <point x="336" y="733" type="curve"/>
      <point x="202" y="733"/>
      <point x="121" y="657"/>
      <point x="121" y="511" type="curve" smooth="yes"/>
      <point x="121" y="477" type="line"/>
      <point x="17" y="477" type="line"/>
    </contour>
    <contour>
      <point x="863" y="770" type="line"/>
      <point x="665" y="735" type="line"/>
      <point x="665" y="723" type="line"/>
      <point x="753" y="701" type="line"/>
      <point x="753" y="141" type="line"/>
      <point x="753" y="55"/>
      <point x="741" y="38"/>
      <point x="673" y="35" type="curve"/>
      <point x="673" y="0" type="line"/>
      <point x="945" y="0" type="line"/>
      <point x="945" y="35" type="line"/>
      <point x="873" y="38"/>
      <point x="863" y="52"/>
      <point x="863" y="148" type="curve"/>
    </contour>
  </outline>
</glyph>
<glyph name="f_h" format="1">
  <advance width="986"/>
  <outline>
    <contour>
      <point x="19" y="430" type="line"/>
      <point x="122" y="430" type="line"/>
      <point x="122" y="144" type="line"/>
      <point x="122" y="51"/>
      <point x="112" y="38"/>
      <point x="40" y="35" type="curve"/>
      <point x="40" y="0" type="line"/>
      <point x="317" y="0" type="line"/>
      <point x="317" y="35" type="line"/>
      <point x="247" y="37"/>
      <point x="232" y="59"/>
      <point x="232" y="152" type="curve" smooth="yes"/>
      <point x="232" y="430" type="line"/>
      <point x="363" y="430" type="line"/>
      <point x="363" y="477" type="line"/>
      <point x="232" y="477" type="line"/>
      <point x="232" y="566" type="line"/>
      <point x="232" y="685"/>
      <point x="259" y="721"/>
      <point x="324" y="721" type="curve"/>
      <point x="376" y="721"/>
      <point x="419" y="684"/>
      <point x="441" y="657" type="curve"/>
      <point x="468" y="657"/>
      <point x="501" y="673"/>
      <point x="501" y="703" type="curve" smooth="yes"/>
      <point x="501" y="747"/>
      <point x="427" y="770"/>
      <point x="343" y="770" type="curve" smooth="yes"/>
      <point x="203" y="770"/>
      <point x="122" y="694"/>
      <point x="122" y="548" type="curve" smooth="yes"/>
      <point x="122" y="477" type="line"/>
      <point x="19" y="477" type="line"/>
    </contour>
    <contour>
      <point x="549" y="276" type="line"/>
      <point x="549" y="387"/>
      <point x="592" y="447"/>
      <point x="672" y="447" type="curve"/>
      <point x="743" y="447"/>
      <point x="781" y="402"/>
      <point x="781" y="272" type="curve"/>
      <point x="781" y="143" type="line"/>
      <point x="781" y="50"/>
      <point x="777" y="38"/>
      <point x="706" y="35" type="curve"/>
      <point x="706" y="0" type="line"/>
      <point x="969" y="0" type="line"/>
      <point x="969" y="35" type="line"/>
      <point x="897" y="39"/>
      <point x="892" y="48"/>
      <point x="892" y="150" type="curve" smooth="yes"/>
      <point x="892" y="293" type="line"/>
      <point x="892" y="436"/>
      <point x="822" y="501"/>
      <point x="708" y="501" type="curve"/>
      <point x="639" y="501"/>
      <point x="585" y="473"/>
      <point x="551" y="427" type="curve"/>
      <point x="548" y="427" type="line"/>
      <point x="548" y="770" type="line"/>
      <point x="359" y="735" type="line"/>
      <point x="359" y="725" type="line"/>
      <point x="440" y="689" type="line"/>
      <point x="440" y="143" type="line"/>
      <point x="440" y="50"/>
      <point x="429" y="39"/>
      <point x="364" y="35" type="curve"/>
      <point x="364" y="0" type="line"/>
      <point x="624" y="0" type="line"/>
      <point x="624" y="35" type="line"/>
      <point x="552" y="39"/>
      <point x="549" y="48"/>
      <point x="549" y="150" type="curve" smooth="yes"/>
    </contour>
  </outline>
</glyph>
<glyph name="f_i" format="1">
  <advance width="651"/>
  <outline>
    <contour>
      <point x="17" y="430" type="line"/>
      <point x="120" y="430" type="line"/>
      <point x="120" y="144" type="line"/>
      <point x="120" y="51"/>
      <point x="111" y="38"/>
      <point x="38" y="35" type="curve"/>
      <point x="38" y="0" type="line"/>
      <point x="315" y="0" type="line"/>
      <point x="315" y="35" type="line"/>
      <point x="246" y="37"/>
      <point x="230" y="59"/>
      <point x="230" y="152" type="curve" smooth="yes"/>
      <point x="230" y="430" type="line"/>
      <point x="385" y="430" type="line"/>
      <point x="385" y="477" type="line"/>
      <point x="230" y="477" type="line"/>
      <point x="230" y="566" type="line"/>
      <point x="230" y="682"/>
      <point x="260" y="722"/>
      <point x="313" y="722" type="curve" smooth="yes"/>
      <point x="340" y="722"/>
      <point x="358" y="708"/>
      <point x="376" y="685" type="curve" smooth="yes"/>
      <point x="396" y="662"/>
      <point x="412" y="649"/>
      <point x="436" y="649" type="curve" smooth="yes"/>
      <point x="463" y="649"/>
      <point x="482" y="667"/>
      <point x="482" y="697" type="curve" smooth="yes"/>
      <point x="482" y="741"/>
      <point x="425" y="770"/>
      <point x="342" y="770" type="curve" smooth="yes"/>
      <point x="201" y="770"/>
      <point x="120" y="694"/>
      <point x="120" y="548" type="curve" smooth="yes"/>
      <point x="120" y="477" type="line"/>
      <point x="17" y="477" type="line"/>
    </contour>
    <contour>
      <point x="545" y="501" type="line"/>
      <point x="346" y="474" type="line"/>
      <point x="346" y="430" type="line"/>
      <point x="405" y="430"/>
      <point x="422" y="419"/>
      <point x="428" y="392" type="curve" smooth="yes"/>
      <point x="432" y="375"/>
      <point x="434" y="332"/>
      <point x="434" y="260" type="curve" smooth="yes"/>
      <point x="434" y="143" type="line"/>
      <point x="434" y="56"/>
      <point x="425" y="38"/>
      <point x="358" y="35" type="curve"/>
      <point x="358" y="0" type="line"/>
      <point x="629" y="0" type="line"/>
      <point x="629" y="35" type="line"/>
      <point x="556" y="38"/>
      <point x="545" y="53"/>
      <point x="545" y="150" type="curve" smooth="yes"/>
    </contour>
  </outline>
</glyph>
<glyph name="f_k" format="1">
  <advance width="936"/>
  <outline>
    <contour>
      <point x="19" y="430" type="line"/>
      <point x="122" y="430" type="line"/>
      <point x="122" y="144" type="line"/>
      <point x="122" y="51"/>
      <point x="112" y="38"/>
      <point x="40" y="35" type="curve"/>
      <point x="40" y="0" type="line"/>
      <point x="317" y="0" type="line"/>
      <point x="317" y="35" type="line"/>
      <point x="247" y="37"/>
      <point x="232" y="59"/>
      <point x="232" y="152" type="curve" smooth="yes"/>
      <point x="232" y="430" type="line"/>
      <point x="363" y="430" type="line"/>
      <point x="363" y="477" type="line"/>
      <point x="232" y="477" type="line"/>
      <point x="232" y="566" type="line"/>
      <point x="232" y="685"/>
      <point x="259" y="721"/>
      <point x="324" y="721" type="curve"/>
      <point x="376" y="721"/>
      <point x="419" y="684"/>
      <point x="441" y="657" type="curve"/>
      <point x="468" y="657"/>
      <point x="501" y="673"/>
      <point x="501" y="703" type="curve" smooth="yes"/>
      <point x="501" y="747"/>
      <point x="427" y="770"/>
      <point x="343" y="770" type="curve" smooth="yes"/>
      <point x="203" y="770"/>
      <point x="122" y="694"/>
      <point x="122" y="548" type="curve" smooth="yes"/>
      <point x="122" y="477" type="line"/>
      <point x="19" y="477" type="line"/>
    </contour>
    <contour>
      <point x="595" y="256" type="line"/>
      <point x="683" y="121" type="line"/>
      <point x="708" y="85"/>
      <point x="723" y="59"/>
      <point x="723" y="49" type="curve" smooth="yes"/>
      <point x="723" y="38"/>
      <point x="710" y="35"/>
      <point x="678" y="35" type="curve"/>
      <point x="678" y="0" type="line"/>
      <point x="936" y="0" type="line"/>
      <point x="936" y="35" type="line"/>
      <point x="890" y="35"/>
      <point x="864" y="47"/>
      <point x="834" y="89" type="curve" smooth="yes"/>
      <point x="668" y="324" type="line"/>
    </contour>
    <contour>
      <point x="634" y="0" type="line"/>
      <point x="634" y="35" type="line"/>
      <point x="562" y="37"/>
      <point x="550" y="53"/>
      <point x="550" y="150" type="curve"/>
      <point x="550" y="186" type="line"/>
      <point x="789" y="405" type="line"/>
      <point x="834" y="447"/>
      <point x="862" y="457"/>
      <point x="908" y="457" type="curve"/>
      <point x="908" y="492" type="line"/>
      <point x="652" y="492" type="line"/>
      <point x="652" y="457" type="line"/>
      <point x="708" y="457"/>
      <point x="729" y="452"/>
      <point x="731" y="438" type="curve" smooth="yes"/>
      <point x="731" y="424"/>
      <point x="718" y="406"/>
      <point x="649" y="342" type="curve" smooth="yes"/>
      <point x="550" y="250" type="line"/>
      <point x="550" y="770" type="line"/>
      <point x="354" y="735" type="line"/>
      <point x="354" y="725" type="line"/>
      <point x="440" y="714" type="line"/>
      <point x="440" y="143" type="line"/>
      <point x="440" y="54"/>
      <point x="427" y="37"/>
      <point x="359" y="35" type="curve"/>
      <point x="359" y="0" type="line"/>
    </contour>
  </outline>
</glyph>
<glyph name="f_l" format="1">
  <advance width="654"/>
  <outline>
    <contour>
      <point x="19" y="430" type="line"/>
      <point x="122" y="430" type="line"/>
      <point x="122" y="144" type="line"/>
      <point x="122" y="51"/>
      <point x="112" y="38"/>
      <point x="40" y="35" type="curve"/>
      <point x="40" y="0" type="line"/>
      <point x="317" y="0" type="line"/>
      <point x="317" y="35" type="line"/>
      <point x="247" y="37"/>
      <point x="232" y="59"/>
      <point x="232" y="152" type="curve" smooth="yes"/>
      <point x="232" y="430" type="line"/>
      <point x="363" y="430" type="line"/>
      <point x="363" y="477" type="line"/>
      <point x="232" y="477" type="line"/>
      <point x="232" y="566" type="line"/>
      <point x="232" y="685"/>
      <point x="259" y="721"/>
      <point x="324" y="721" type="curve"/>
      <point x="376" y="721"/>
      <point x="419" y="684"/>
      <point x="441" y="657" type="curve"/>
      <point x="468" y="657"/>
      <point x="501" y="673"/>
      <point x="501" y="703" type="curve" smooth="yes"/>
      <point x="501" y="747"/>
      <point x="427" y="770"/>
      <point x="343" y="770" type="curve" smooth="yes"/>
      <point x="203" y="770"/>
      <point x="122" y="694"/>
      <point x="122" y="548" type="curve" smooth="yes"/>
      <point x="122" y="477" type="line"/>
      <point x="19" y="477" type="line"/>
    </contour>
    <contour>
      <point x="549" y="770" type="line"/>
      <point x="352" y="735" type="line"/>
      <point x="352" y="723" type="line"/>
      <point x="440" y="701" type="line"/>
      <point x="440" y="141" type="line"/>
      <point x="440" y="55"/>
      <point x="427" y="38"/>
      <point x="360" y="35" type="curve"/>
      <point x="360" y="0" type="line"/>
      <point x="631" y="0" type="line"/>
      <point x="631" y="35" type="line"/>
      <point x="560" y="38"/>
      <point x="549" y="52"/>
      <point x="549" y="148" type="curve"/>
    </contour>
  </outline>
</glyph>
<glyph name="hungarumlaut.cap" format="1">
  <advance width="459"/>
  <outline>
    <contour>
      <point x="269" y="780" type="line"/>
      <point x="365" y="806" type="line"/>
      <point x="417" y="820"/>
      <point x="440" y="834"/>
      <point x="440" y="857" type="curve" smooth="yes"/>
      <point x="440" y="878"/>
      <point x="424" y="890"/>
      <point x="397" y="890" type="curve" smooth="yes"/>
      <point x="369" y="890"/>
      <point x="341" y="881"/>
      <point x="313" y="860" type="curve" smooth="yes"/>
      <point x="207" y="780" type="line"/>
    </contour>
    <contour>
      <point x="80" y="780" type="line"/>
      <point x="176" y="806" type="line"/>
      <point x="227" y="820"/>
      <point x="251" y="834"/>
      <point x="251" y="857" type="curve" smooth="yes"/>
      <point x="251" y="878"/>
      <point x="235" y="890"/>
      <point x="208" y="890" type="curve" smooth="yes"/>
      <point x="179" y="890"/>
      <point x="152" y="881"/>
      <point x="124" y="860" type="curve" smooth="yes"/>
      <point x="18" y="780" type="line"/>
    </contour>
    <contour>
      <point x="195" y="770" type="move" name="_topcap"/>
    </contour>
  </outline>
</glyph>
<glyph name="s_t" format="1">
  <advance width="805"/>
  <outline>
    <contour>
      <point x="224" y="506" type="curve" smooth="yes"/>
      <point x="125" y="506"/>
      <point x="55" y="449"/>
      <point x="55" y="372" type="curve"/>
      <point x="55" y="305"/>
      <point x="93" y="261"/>
      <point x="157" y="224" type="curve" smooth="yes"/>
      <point x="222" y="186" type="line"/>
      <point x="281" y="151"/>
      <point x="311" y="125"/>
      <point x="311" y="91" type="curve"/>
      <point x="311" y="56"/>
      <point x="286" y="35"/>
      <point x="236" y="35" type="curve"/>
      <point x="167" y="35"/>
      <point x="108" y="70"/>
      <point x="86" y="164" type="curve"/>
      <point x="55" y="164" type="line"/>
      <point x="55" y="0" type="line"/>
      <point x="79" y="0" type="line"/>
      <point x="99" y="32" type="line"/>
      <point x="134" y="10"/>
      <point x="187" y="-9"/>
      <point x="245" y="-9" type="curve"/>
      <point x="341" y="-9"/>
      <point x="408" y="47"/>
      <point x="408" y="128" type="curve"/>
      <point x="408" y="196"/>
      <point x="367" y="234"/>
      <point x="292" y="278" type="curve" smooth="yes"/>
      <point x="247" y="305" type="line"/>
      <point x="192" y="338"/>
      <point x="156" y="367"/>
      <point x="156" y="407" type="curve" smooth="yes"/>
      <point x="156" y="439"/>
      <point x="180" y="458"/>
      <point x="217" y="458" type="curve"/>
      <point x="250" y="458"/>
      <point x="266" y="447"/>
      <point x="299" y="402" type="curve" smooth="yes"/>
      <point x="323" y="370"/>
      <point x="338" y="359"/>
      <point x="361" y="359" type="curve" smooth="yes"/>
      <point x="392" y="359"/>
      <point x="412" y="378"/>
      <point x="412" y="406" type="curve" smooth="yes"/>
      <point x="412" y="427"/>
      <point x="403" y="445"/>
      <point x="386" y="459" type="curve" smooth="yes"/>
      <point x="355" y="491"/>
      <point x="339" y="528"/>
      <point x="339" y="577" type="curve"/>
      <point x="339" y="651"/>
      <point x="382" y="702"/>
      <point x="470" y="702" type="curve"/>
      <point x="547" y="702"/>
      <point x="588" y="652"/>
      <point x="588" y="584" type="curve" smooth="yes"/>
      <point x="588" y="523"/>
      <point x="560" y="492"/>
      <point x="474" y="474" type="curve"/>
      <point x="474" y="436" type="line"/>
      <point x="542" y="436" type="line"/>
      <point x="542" y="131" type="line"/>
      <point x="542" y="29"/>
      <point x="591" y="-9"/>
      <point x="671" y="-9" type="curve"/>
      <point x="728" y="-9"/>
      <point x="775" y="15"/>
      <point x="798" y="59" type="curve"/>
      <point x="776" y="81" type="line"/>
      <point x="761" y="55"/>
      <point x="738" y="43"/>
      <point x="708" y="43" type="curve"/>
      <point x="668" y="43"/>
      <point x="653" y="67"/>
      <point x="653" y="117" type="curve"/>
      <point x="653" y="436" type="line"/>
      <point x="769" y="436" type="line"/>
      <point x="769" y="484" type="line"/>
      <point x="653" y="484" type="line"/>
      <point x="653" y="565" type="line"/>
      <point x="653" y="683"/>
      <point x="582" y="750"/>
      <point x="472" y="750" type="curve"/>
      <point x="369" y="750"/>
      <point x="287" y="687"/>
      <point x="287" y="580" type="curve"/>
      <point x="287" y="547"/>
      <point x="294" y="516"/>
      <point x="306" y="493" type="curve"/>
      <point x="283" y="499"/>
      <point x="252" y="506"/>
    </contour>
  </outline>
</glyph>
<glyph name="tilde.cap" format="1">
  <advance width="362"/>
  <outline>
    <contour>
      <point x="51" y="780" type="line"/>
      <point x="60" y="807"/>
      <point x="71" y="817"/>
      <point x="93" y="817" type="curve" smooth="yes"/>
      <point x="141" y="817"/>
      <point x="194" y="772"/>
      <point x="247" y="772" type="curve" smooth="yes"/>
      <point x="303" y="772"/>
      <point x="339" y="824"/>
      <point x="347" y="888" type="curve"/>
      <point x="311" y="888" type="line"/>
      <point x="302" y="859"/>
      <point x="290" y="849"/>
      <point x="267" y="849" type="curve" smooth="yes"/>
      <point x="224" y="849"/>
      <point x="169" y="891"/>
      <point x="119" y="891" type="curve" smooth="yes"/>
      <point x="64" y="891"/>
      <point x="26" y="847"/>
      <point x="14" y="780" type="curve"/>
    </contour>
    <contour>
      <point x="182" y="770" type="move" name="_topcap"/>
    </contour>
  </outline>
</glyph>
